# WaveFront *.obj file (generated by Autodesk ATF)

mtllib frame.mtl

g Body1

v -0.550000 -0.003768 0.000000
v 0.550000 -0.003768 0.000000
v 0.550000 -0.195917 0.000000
v -0.550000 -0.195917 0.000000
v -0.550000 -0.195917 2.000000
v -0.550000 -0.003768 2.000000
v 0.550000 -0.195917 2.000000
v 0.550000 -0.003768 2.000000
v 0.025000 -0.017493 1.850000
v 0.024148 -0.017493 1.856471
v 0.021651 -0.017493 1.862500
v 0.017678 -0.017493 1.867678
v 0.012500 -0.017493 1.871651
v 0.006470 -0.017493 1.874148
v -0.000000 -0.017493 1.875000
v -0.006470 -0.017493 1.874148
v -0.012500 -0.017493 1.871651
v -0.017678 -0.017493 1.867678
v -0.021651 -0.017493 1.862500
v -0.024148 -0.017493 1.856471
v -0.025000 -0.017493 1.850000
v -0.024148 -0.017493 1.843530
v -0.021651 -0.017493 1.837500
v -0.017678 -0.017493 1.832322
v -0.012500 -0.017493 1.828349
v -0.006470 -0.017493 1.825852
v -0.000000 -0.017493 1.825000
v 0.006470 -0.017493 1.825852
v 0.012500 -0.017493 1.828349
v 0.017678 -0.017493 1.832322
v 0.021651 -0.017493 1.837500
v 0.024148 -0.017493 1.843530
v 0.025000 -0.003768 1.850000
v 0.024148 -0.003768 1.843530
v 0.021651 -0.003768 1.837500
v 0.017678 -0.003768 1.832322
v 0.012500 -0.003768 1.828349
v 0.006470 -0.003768 1.825852
v -0.000000 -0.003768 1.825000
v -0.006470 -0.003768 1.825852
v -0.012500 -0.003768 1.828349
v -0.017678 -0.003768 1.832322
v -0.021651 -0.003768 1.837500
v -0.024148 -0.003768 1.843530
v -0.025000 -0.003768 1.850000
v -0.024148 -0.003768 1.856471
v -0.021651 -0.003768 1.862500
v -0.017678 -0.003768 1.867678
v -0.012500 -0.003768 1.871651
v -0.006470 -0.003768 1.874148
v -0.000000 -0.003768 1.875000
v 0.006470 -0.003768 1.874148
v 0.012500 -0.003768 1.871651
v 0.017678 -0.003768 1.867678
v 0.021651 -0.003768 1.862500
v 0.024148 -0.003768 1.856471
v 0.500000 -0.195917 1.950000
v 0.500000 -0.195917 0.050000
v -0.500000 -0.195917 0.050000
v -0.500000 -0.195917 1.950000
v 0.450000 -0.003768 0.150000
v 0.450000 -0.003768 1.750000
v -0.450000 -0.003768 1.750000
v -0.450000 -0.003768 0.150000
v -0.450000 -0.017493 1.750000
v -0.450000 -0.017493 0.150000
v 0.450000 -0.017493 1.750000
v 0.450000 -0.017493 0.150000
v 0.500000 -0.017493 1.950000
v 0.500000 -0.017493 0.050000
v -0.500000 -0.017493 1.950000
v -0.500000 -0.017493 0.050000
vt 0.550000 0.096075 0.000000
vt -0.550000 0.096075 0.000000
vt 0.550000 -0.096075 0.000000
vt -0.550000 -0.096075 0.000000
vt 0.000000 -0.192149 0.000000
vt 2.000000 -0.192149 0.000000
vt 0.000000 0.000000 0.000000
vt 2.000000 0.000000 0.000000
vt -0.550000 -0.096075 0.000000
vt 0.550000 -0.096075 0.000000
vt -0.550000 0.096075 0.000000
vt 0.550000 0.096075 0.000000
vt 0.000000 0.192149 0.000000
vt -2.000000 0.192149 0.000000
vt 0.000000 0.000000 0.000000
vt -2.000000 0.000000 0.000000
vt 0.013725 -0.071995 0.000000
vt 0.000000 -0.071995 0.000000
vt 0.013725 -0.078540 0.000000
vt 0.000000 -0.078540 0.000000
vt 0.013725 0.078540 0.000000
vt 0.000000 0.078540 0.000000
vt 0.013725 0.071995 0.000000
vt 0.000000 0.071995 0.000000
vt 0.013725 0.065450 0.000000
vt 0.000000 0.065450 0.000000
vt 0.013725 0.058905 0.000000
vt 0.000000 0.058905 0.000000
vt 0.013725 0.052360 0.000000
vt 0.000000 0.052360 0.000000
vt 0.013725 0.045815 0.000000
vt 0.000000 0.045815 0.000000
vt 0.013725 0.039270 0.000000
vt -0.000000 0.039270 0.000000
vt 0.013725 0.032725 0.000000
vt 0.000000 0.032725 0.000000
vt 0.013725 0.026180 0.000000
vt 0.000000 0.026180 0.000000
vt 0.013725 0.019635 0.000000
vt -0.000000 0.019635 0.000000
vt 0.013725 0.013090 0.000000
vt -0.000000 0.013090 0.000000
vt 0.013725 0.006545 0.000000
vt -0.000000 0.006545 0.000000
vt 0.013725 0.000000 0.000000
vt 0.000000 0.000000 0.000000
vt 0.013725 -0.006545 0.000000
vt 0.000000 -0.006545 0.000000
vt 0.013725 -0.013090 0.000000
vt 0.000000 -0.013090 0.000000
vt 0.013725 -0.019635 0.000000
vt 0.000000 -0.019635 0.000000
vt 0.013725 -0.026180 0.000000
vt 0.000000 -0.026180 0.000000
vt 0.013725 -0.032725 0.000000
vt 0.000000 -0.032725 0.000000
vt 0.013725 -0.039270 0.000000
vt 0.000000 -0.039270 0.000000
vt 0.013725 -0.045815 0.000000
vt 0.000000 -0.045815 0.000000
vt 0.013725 -0.052360 0.000000
vt 0.000000 -0.052360 0.000000
vt 0.013725 -0.058905 0.000000
vt 0.000000 -0.058905 0.000000
vt 0.013725 -0.065450 0.000000
vt 0.000000 -0.065450 0.000000
vt 0.000000 1.100000 0.000000
vt -0.050000 1.050000 0.000000
vt 0.000000 0.000000 0.000000
vt -0.050000 0.050000 0.000000
vt -2.000000 0.000000 0.000000
vt -1.950000 0.050000 0.000000
vt -1.950000 1.050000 0.000000
vt -2.000000 1.100000 0.000000
vt 0.000000 -1.100000 0.000000
vt 0.150000 -0.100000 0.000000
vt 0.000000 0.000000 0.000000
vt 1.750000 -0.100000 0.000000
vt 2.000000 0.000000 0.000000
vt 1.856471 -0.525852 0.000000
vt 1.862500 -0.528349 0.000000
vt 2.000000 -1.100000 0.000000
vt 1.750000 -1.000000 0.000000
vt 0.150000 -1.000000 0.000000
vt 1.875000 -0.550000 0.000000
vt 1.874148 -0.556470 0.000000
vt 1.871651 -0.562500 0.000000
vt 1.843530 -0.525852 0.000000
vt 1.850000 -0.525000 0.000000
vt 1.867678 -0.532322 0.000000
vt 1.871651 -0.537500 0.000000
vt 1.874148 -0.543529 0.000000
vt 1.867678 -0.567678 0.000000
vt 1.862500 -0.571651 0.000000
vt 1.856471 -0.574148 0.000000
vt 1.850000 -0.575000 0.000000
vt 1.843530 -0.574148 0.000000
vt 1.837500 -0.571651 0.000000
vt 1.832322 -0.567678 0.000000
vt 1.828349 -0.562500 0.000000
vt 1.825852 -0.556470 0.000000
vt 1.825000 -0.550000 0.000000
vt 1.825852 -0.543529 0.000000
vt 1.828349 -0.537500 0.000000
vt 1.832322 -0.532322 0.000000
vt 1.837500 -0.528349 0.000000
vt -1.600000 0.109800 0.000000
vt -0.000000 0.109800 0.000000
vt -1.600000 0.123524 0.000000
vt -0.000000 0.123524 0.000000
vt -0.900000 0.109800 0.000000
vt -0.000000 0.109800 0.000000
vt -0.900000 0.123524 0.000000
vt -0.000000 0.123524 0.000000
vt -1.600000 0.109800 0.000000
vt -0.000000 0.109800 0.000000
vt -1.600000 0.123524 0.000000
vt -0.000000 0.123524 0.000000
vt -0.900000 0.109800 0.000000
vt -0.000000 0.109800 0.000000
vt -0.900000 0.123524 0.000000
vt -0.000000 0.123524 0.000000
vt -1.900000 0.000000 0.000000
vt -0.000000 0.000000 0.000000
vt -1.900000 0.178424 0.000000
vt -0.000000 0.178424 0.000000
vt -1.000000 0.000000 0.000000
vt -0.000000 0.000000 0.000000
vt -1.000000 0.178424 0.000000
vt -0.000000 0.178424 0.000000
vt -1.900000 0.000000 0.000000
vt -0.000000 0.000000 0.000000
vt -1.900000 0.178424 0.000000
vt -0.000000 0.178424 0.000000
vt -1.000000 0.000000 0.000000
vt -0.000000 0.000000 0.000000
vt -1.000000 0.178424 0.000000
vt -0.000000 0.178424 0.000000
vt -0.856470 0.024148 0.000000
vt -0.850000 0.025000 0.000000
vt -0.750000 0.450000 0.000000
vt -0.843530 0.024148 0.000000
vt -0.837500 0.021651 0.000000
vt -0.832322 0.017678 0.000000
vt -0.828349 0.012500 0.000000
vt -0.825852 0.006471 0.000000
vt -0.825000 0.000000 0.000000
vt -0.750000 -0.450000 0.000000
vt -0.825852 -0.006470 0.000000
vt -0.828349 -0.012500 0.000000
vt -0.832322 -0.017678 0.000000
vt -0.837500 -0.021651 0.000000
vt -0.843530 -0.024148 0.000000
vt -0.850000 -0.025000 0.000000
vt -0.856470 -0.024148 0.000000
vt -0.950000 -0.500000 0.000000
vt -0.862500 -0.021651 0.000000
vt -0.867678 -0.017678 0.000000
vt -0.871651 -0.012500 0.000000
vt -0.874148 -0.006470 0.000000
vt -0.875000 0.000000 0.000000
vt -0.950000 0.500000 0.000000
vt -0.874148 0.006471 0.000000
vt -0.871651 0.012500 0.000000
vt -0.867678 0.017678 0.000000
vt -0.862500 0.021651 0.000000
vt 0.950000 0.500000 0.000000
vt 0.850000 0.450000 0.000000
vt 0.950000 -0.500000 0.000000
vt 0.850000 -0.450000 0.000000
vn -0.000000 -0.000000 -1.000000
vn -0.000000 -0.000000 -1.000000
vn -0.000000 -0.000000 -1.000000
vn -0.000000 -0.000000 -1.000000
vn -1.000000 0.000000 0.000000
vn -1.000000 0.000000 0.000000
vn -1.000000 0.000000 0.000000
vn -1.000000 0.000000 0.000000
vn 0.000000 0.000000 1.000000
vn 0.000000 0.000000 1.000000
vn 0.000000 0.000000 1.000000
vn 0.000000 0.000000 1.000000
vn 1.000000 0.000000 0.000000
vn 1.000000 0.000000 0.000000
vn 1.000000 0.000000 0.000000
vn 1.000000 0.000000 0.000000
vn -0.965926 -0.000000 -0.258819
vn -0.965926 -0.000000 -0.258819
vn -1.000000 -0.000000 -0.000000
vn -1.000000 -0.000000 -0.000000
vn -0.965926 0.000000 0.258819
vn -0.965926 0.000000 0.258819
vn -0.866025 0.000000 0.500000
vn -0.866025 0.000000 0.500000
vn -0.707107 0.000000 0.707107
vn -0.707107 0.000000 0.707107
vn -0.500000 0.000000 0.866025
vn -0.500000 0.000000 0.866025
vn -0.258819 0.000000 0.965926
vn -0.258819 0.000000 0.965926
vn 0.000000 0.000000 1.000000
vn 0.000000 0.000000 1.000000
vn 0.258819 0.000000 0.965926
vn 0.258819 0.000000 0.965926
vn 0.500000 0.000000 0.866025
vn 0.500000 0.000000 0.866025
vn 0.707107 0.000000 0.707107
vn 0.707107 0.000000 0.707107
vn 0.866025 0.000000 0.500000
vn 0.866025 0.000000 0.500000
vn 0.965926 0.000000 0.258819
vn 0.965926 0.000000 0.258819
vn 1.000000 0.000000 0.000000
vn 1.000000 0.000000 0.000000
vn 0.965926 0.000000 -0.258819
vn 0.965926 0.000000 -0.258819
vn 0.866025 0.000000 -0.500000
vn 0.866025 0.000000 -0.500000
vn 0.707107 0.000000 -0.707107
vn 0.707107 0.000000 -0.707107
vn 0.500000 0.000000 -0.866025
vn 0.500000 0.000000 -0.866025
vn 0.258819 0.000000 -0.965926
vn 0.258819 0.000000 -0.965926
vn 0.000000 0.000000 -1.000000
vn 0.000000 0.000000 -1.000000
vn -0.258819 -0.000000 -0.965926
vn -0.258819 -0.000000 -0.965926
vn -0.500000 -0.000000 -0.866025
vn -0.500000 -0.000000 -0.866025
vn -0.707107 -0.000000 -0.707107
vn -0.707107 -0.000000 -0.707107
vn -0.866025 -0.000000 -0.500000
vn -0.866025 -0.000000 -0.500000
vn 0.000000 -1.000000 0.000000
vn 0.000000 -1.000000 0.000000
vn 0.000000 -1.000000 0.000000
vn 0.000000 -1.000000 0.000000
vn 0.000000 -1.000000 0.000000
vn 0.000000 -1.000000 0.000000
vn 0.000000 -1.000000 0.000000
vn 0.000000 -1.000000 0.000000
vn 0.000000 1.000000 0.000000
vn 0.000000 1.000000 0.000000
vn 0.000000 1.000000 0.000000
vn 0.000000 1.000000 0.000000
vn 0.000000 1.000000 0.000000
vn 0.000000 1.000000 0.000000
vn 0.000000 1.000000 0.000000
vn 0.000000 1.000000 0.000000
vn 0.000000 1.000000 0.000000
vn 0.000000 1.000000 0.000000
vn 0.000000 1.000000 0.000000
vn 0.000000 1.000000 0.000000
vn 0.000000 1.000000 0.000000
vn 0.000000 1.000000 0.000000
vn 0.000000 1.000000 0.000000
vn 0.000000 1.000000 0.000000
vn 0.000000 1.000000 0.000000
vn 0.000000 1.000000 0.000000
vn 0.000000 1.000000 0.000000
vn 0.000000 1.000000 0.000000
vn 0.000000 1.000000 0.000000
vn 0.000000 1.000000 0.000000
vn 0.000000 1.000000 0.000000
vn 0.000000 1.000000 0.000000
vn 0.000000 1.000000 0.000000
vn 0.000000 1.000000 0.000000
vn 0.000000 1.000000 0.000000
vn 0.000000 1.000000 0.000000
vn 0.000000 1.000000 0.000000
vn 0.000000 1.000000 0.000000
vn 0.000000 1.000000 0.000000
vn 0.000000 1.000000 0.000000
vn 1.000000 -0.000000 -0.000000
vn 1.000000 -0.000000 -0.000000
vn 1.000000 -0.000000 -0.000000
vn 1.000000 -0.000000 -0.000000
vn -0.000000 -0.000000 -1.000000
vn -0.000000 -0.000000 -1.000000
vn -0.000000 -0.000000 -1.000000
vn -0.000000 -0.000000 -1.000000
vn -1.000000 -0.000000 -0.000000
vn -1.000000 -0.000000 -0.000000
vn -1.000000 -0.000000 -0.000000
vn -1.000000 -0.000000 -0.000000
vn -0.000000 -0.000000 1.000000
vn -0.000000 -0.000000 1.000000
vn -0.000000 -0.000000 1.000000
vn -0.000000 -0.000000 1.000000
vn -1.000000 -0.000000 -0.000000
vn -1.000000 -0.000000 -0.000000
vn -1.000000 -0.000000 -0.000000
vn -1.000000 -0.000000 -0.000000
vn -0.000000 -0.000000 -1.000000
vn -0.000000 -0.000000 -1.000000
vn -0.000000 -0.000000 -1.000000
vn -0.000000 -0.000000 -1.000000
vn 1.000000 -0.000000 -0.000000
vn 1.000000 -0.000000 -0.000000
vn 1.000000 -0.000000 -0.000000
vn 1.000000 -0.000000 -0.000000
vn -0.000000 -0.000000 1.000000
vn -0.000000 -0.000000 1.000000
vn -0.000000 -0.000000 1.000000
vn -0.000000 -0.000000 1.000000
vn -0.000000 -1.000000 -0.000000
vn -0.000000 -1.000000 -0.000000
vn -0.000000 -1.000000 -0.000000
vn -0.000000 -1.000000 -0.000000
vn -0.000000 -1.000000 -0.000000
vn -0.000000 -1.000000 -0.000000
vn -0.000000 -1.000000 -0.000000
vn -0.000000 -1.000000 -0.000000
vn -0.000000 -1.000000 -0.000000
vn -0.000000 -1.000000 -0.000000
vn -0.000000 -1.000000 -0.000000
vn -0.000000 -1.000000 -0.000000
vn -0.000000 -1.000000 -0.000000
vn -0.000000 -1.000000 -0.000000
vn -0.000000 -1.000000 -0.000000
vn -0.000000 -1.000000 -0.000000
vn -0.000000 -1.000000 -0.000000
vn -0.000000 -1.000000 -0.000000
vn -0.000000 -1.000000 -0.000000
vn -0.000000 -1.000000 -0.000000
vn -0.000000 -1.000000 -0.000000
vn -0.000000 -1.000000 -0.000000
vn -0.000000 -1.000000 -0.000000
vn -0.000000 -1.000000 -0.000000
vn -0.000000 -1.000000 -0.000000
vn -0.000000 -1.000000 -0.000000
vn -0.000000 -1.000000 -0.000000
vn -0.000000 -1.000000 -0.000000
vn -0.000000 -1.000000 -0.000000
vn -0.000000 -1.000000 -0.000000
vn -0.000000 -1.000000 -0.000000
vn -0.000000 -1.000000 -0.000000
usemtl Steel_-_Satin
f 1/1/1 2/2/2 4/3/3
f 4/3/3 2/2/2 3/4/4
f 4/5/5 5/6/6 1/7/7
f 1/7/7 5/6/6 6/8/8
f 5/9/9 7/10/10 6/11/11
f 6/11/11 7/10/10 8/12/12
f 2/13/13 8/14/14 3/15/15
f 3/15/15 8/14/14 7/16/16
f 10/17/17 56/18/18 9/19/19
f 9/19/19 56/18/18 33/20/20
f 9/21/19 33/22/20 32/23/21
f 32/23/21 33/22/20 34/24/22
f 32/23/21 34/24/22 31/25/23
f 31/25/23 34/24/22 35/26/24
f 31/25/23 35/26/24 30/27/25
f 30/27/25 35/26/24 36/28/26
f 30/27/25 36/28/26 29/29/27
f 29/29/27 36/28/26 37/30/28
f 29/29/27 37/30/28 28/31/29
f 28/31/29 37/30/28 38/32/30
f 28/31/29 38/32/30 27/33/31
f 27/33/31 38/32/30 39/34/32
f 27/33/31 39/34/32 26/35/33
f 26/35/33 39/34/32 40/36/34
f 26/35/33 40/36/34 25/37/35
f 25/37/35 40/36/34 41/38/36
f 25/37/35 41/38/36 24/39/37
f 24/39/37 41/38/36 42/40/38
f 24/39/37 42/40/38 23/41/39
f 23/41/39 42/40/38 43/42/40
f 23/41/39 43/42/40 22/43/41
f 22/43/41 43/42/40 44/44/42
f 22/43/41 44/44/42 21/45/43
f 21/45/43 44/44/42 45/46/44
f 21/45/43 45/46/44 20/47/45
f 20/47/45 45/46/44 46/48/46
f 20/47/45 46/48/46 19/49/47
f 19/49/47 46/48/46 47/50/48
f 19/49/47 47/50/48 18/51/49
f 18/51/49 47/50/48 48/52/50
f 18/51/49 48/52/50 17/53/51
f 17/53/51 48/52/50 49/54/52
f 17/53/51 49/54/52 16/55/53
f 16/55/53 49/54/52 50/56/54
f 16/55/53 50/56/54 15/57/55
f 15/57/55 50/56/54 51/58/56
f 15/57/55 51/58/56 14/59/57
f 14/59/57 51/58/56 52/60/58
f 14/59/57 52/60/58 13/61/59
f 13/61/59 52/60/58 53/62/60
f 13/61/59 53/62/60 12/63/61
f 12/63/61 53/62/60 54/64/62
f 12/63/61 54/64/62 11/65/63
f 11/65/63 54/64/62 55/66/64
f 11/65/63 55/66/64 10/17/17
f 10/17/17 55/66/64 56/18/18
f 3/67/65 58/68/66 4/69/67
f 4/69/67 58/68/66 59/70/68
f 4/69/67 59/70/68 5/71/69
f 5/71/69 59/70/68 60/72/70
f 5/71/69 60/72/70 57/73/71
f 3/67/65 7/74/72 58/68/66
f 58/68/66 7/74/72 57/73/71
f 57/73/71 7/74/72 5/71/69
f 1/75/73 61/76/74 2/77/75
f 2/77/75 61/76/74 62/78/76
f 2/77/75 62/78/76 8/79/77
f 8/79/77 62/78/76 56/80/78
f 8/79/77 56/80/78 55/81/79
f 6/82/80 63/83/81 1/75/73
f 1/75/73 63/83/81 64/84/82
f 1/75/73 64/84/82 61/76/74
f 8/79/77 51/85/83 6/82/80
f 6/82/80 51/85/83 50/86/84
f 6/82/80 50/86/84 49/87/85
f 34/88/86 33/89/87 62/78/76
f 62/78/76 33/89/87 56/80/78
f 55/81/79 54/90/88 8/79/77
f 8/79/77 54/90/88 53/91/89
f 8/79/77 53/91/89 52/92/90
f 52/92/90 51/85/83 8/79/77
f 49/87/85 48/93/91 6/82/80
f 6/82/80 48/93/91 47/94/92
f 6/82/80 47/94/92 46/95/93
f 6/82/80 46/95/93 63/83/81
f 63/83/81 46/95/93 45/96/94
f 63/83/81 45/96/94 44/97/95
f 44/97/95 43/98/96 63/83/81
f 63/83/81 43/98/96 42/99/97
f 63/83/81 42/99/97 41/100/98
f 41/100/98 40/101/99 63/83/81
f 63/83/81 40/101/99 39/102/100
f 63/83/81 39/102/100 62/78/76
f 62/78/76 39/102/100 38/103/101
f 62/78/76 38/103/101 37/104/102
f 37/104/102 36/105/103 62/78/76
f 62/78/76 36/105/103 35/106/104
f 62/78/76 35/106/104 34/88/86
f 65/107/105 66/108/106 63/109/107
f 63/109/107 66/108/106 64/110/108
f 67/111/109 65/112/110 62/113/111
f 62/113/111 65/112/110 63/114/112
f 68/115/113 67/116/114 61/117/115
f 61/117/115 67/116/114 62/118/116
f 66/119/117 68/120/118 64/121/119
f 64/121/119 68/120/118 61/122/120
f 58/123/121 57/124/122 70/125/123
f 70/125/123 57/124/122 69/126/124
f 57/127/125 60/128/126 69/129/127
f 69/129/127 60/128/126 71/130/128
f 60/131/129 59/132/130 71/133/131
f 71/133/131 59/132/130 72/134/132
f 59/135/133 58/136/134 72/137/135
f 72/137/135 58/136/134 70/138/136
f 10/139/137 9/140/138 67/141/139
f 67/141/139 9/140/138 32/142/140
f 67/141/139 32/142/140 31/143/141
f 31/143/141 30/144/142 67/141/139
f 67/141/139 30/144/142 29/145/143
f 67/141/139 29/145/143 28/146/144
f 28/146/144 27/147/145 67/141/139
f 67/141/139 27/147/145 65/148/146
f 65/148/146 27/147/145 26/149/147
f 65/148/146 26/149/147 25/150/148
f 25/150/148 24/151/149 65/148/146
f 65/148/146 24/151/149 23/152/150
f 65/148/146 23/152/150 22/153/151
f 22/153/151 21/154/152 65/148/146
f 65/148/146 21/154/152 20/155/153
f 65/148/146 20/155/153 71/156/154
f 71/156/154 20/155/153 19/157/155
f 71/156/154 19/157/155 18/158/156
f 18/158/156 17/159/157 71/156/154
f 71/156/154 17/159/157 16/160/158
f 71/156/154 16/160/158 15/161/159
f 71/156/154 15/161/159 69/162/160
f 69/162/160 15/161/159 14/163/161
f 69/162/160 14/163/161 13/164/162
f 13/164/162 12/165/163 69/162/160
f 69/162/160 12/165/163 11/166/164
f 69/162/160 11/166/164 10/139/137
f 69/162/160 10/139/137 67/141/139
f 69/162/160 67/141/139 70/167/165
f 70/167/165 67/141/139 68/168/166
f 70/167/165 68/168/166 72/169/167
f 72/169/167 68/168/166 66/170/168
f 72/169/167 66/170/168 65/148/146
f 71/156/154 72/169/167 65/148/146
g Body2

# 72 vertices
# 170 texture params
# 168 normals
# 148 facets

# 2 groups
