# WaveFront *.obj file (generated by Autodesk ATF)

mtllib body.mtl

g Body1

v -1.500000 0.600000 0.800000
v 1.500000 0.600000 0.800000
v 1.500000 0.000000 0.800000
v -1.500000 0.000000 0.800000
v -1.500000 0.600000 -0.800000
v -1.678017 0.600000 -0.779942
v -1.847107 0.600000 -0.720775
v -1.998792 0.600000 -0.625465
v -2.125465 0.600000 -0.498792
v -2.220775 0.600000 -0.347107
v -2.279942 0.600000 -0.178017
v -2.300000 0.600000 -0.000000
v -2.279942 0.600000 0.178017
v -2.220775 0.600000 0.347107
v -2.125465 0.600000 0.498792
v -1.998792 0.600000 0.625465
v -1.847107 0.600000 0.720775
v -1.678017 0.600000 0.779942
v -1.678017 0.000000 0.779942
v -1.847107 0.000000 0.720775
v -1.998792 0.000000 0.625465
v -2.125465 0.000000 0.498792
v -2.220775 0.000000 0.347107
v -2.279942 0.000000 0.178017
v -2.300000 0.000000 -0.000000
v -2.279942 0.000000 -0.178017
v -2.220775 0.000000 -0.347107
v -2.125465 0.000000 -0.498792
v -1.998792 0.000000 -0.625465
v -1.847107 0.000000 -0.720775
v -1.678017 0.000000 -0.779942
v -1.500000 0.000000 -0.800000
v 1.500000 0.600000 -0.800000
v 1.500000 0.000000 -0.800000
v 1.678017 0.600000 0.779942
v 1.847107 0.600000 0.720775
v 1.998792 0.600000 0.625465
v 2.125465 0.600000 0.498792
v 2.220775 0.600000 0.347107
v 2.279942 0.600000 0.178017
v 2.300000 0.600000 0.000000
v 2.279942 0.600000 -0.178017
v 2.220775 0.600000 -0.347107
v 2.125465 0.600000 -0.498792
v 1.998792 0.600000 -0.625465
v 1.847107 0.600000 -0.720775
v 1.678017 0.600000 -0.779942
v 1.678017 0.000000 -0.779942
v 1.847107 0.000000 -0.720775
v 1.998792 0.000000 -0.625465
v 2.125465 0.000000 -0.498792
v 2.220775 0.000000 -0.347107
v 2.279942 0.000000 -0.178017
v 2.300000 0.000000 0.000000
v 2.279942 0.000000 0.178017
v 2.220775 0.000000 0.347107
v 2.125465 0.000000 0.498792
v 1.998792 0.000000 0.625465
v 1.847107 0.000000 0.720775
v 1.678017 0.000000 0.779942
v 1.500000 0.000000 -1.000000
v -1.500000 0.000000 -1.000000
v -1.500000 0.600000 -1.000000
v 1.500000 0.600000 -1.000000
v 1.500000 0.000000 1.000000
v 1.695090 0.000000 0.980785
v 1.882683 0.000000 0.923880
v 2.055570 0.000000 0.831470
v 2.207107 0.000000 0.707107
v 2.331470 0.000000 0.555570
v 2.423880 0.000000 0.382683
v 2.480785 0.000000 0.195090
v 2.500000 0.000000 0.000000
v 2.480785 0.000000 -0.195090
v 2.423880 0.000000 -0.382683
v 2.331470 0.000000 -0.555570
v 2.207107 0.000000 -0.707107
v 2.055570 0.000000 -0.831470
v 1.882683 0.000000 -0.923880
v 1.695090 0.000000 -0.980785
v 1.695090 0.600000 -0.980785
v 1.882683 0.600000 -0.923880
v 2.055570 0.600000 -0.831470
v 2.207107 0.600000 -0.707107
v 2.331470 0.600000 -0.555570
v 2.423880 0.600000 -0.382683
v 2.480785 0.600000 -0.195090
v 2.500000 0.600000 0.000000
v 2.480785 0.600000 0.195090
v 2.423880 0.600000 0.382683
v 2.331470 0.600000 0.555570
v 2.207107 0.600000 0.707107
v 2.055570 0.600000 0.831470
v 1.882683 0.600000 0.923880
v 1.695090 0.600000 0.980785
v 1.500000 0.600000 1.000000
v -1.500000 0.000000 1.000000
v -1.500000 0.600000 1.000000
v -1.695090 0.000000 -0.980785
v -1.882683 0.000000 -0.923880
v -2.055570 0.000000 -0.831470
v -2.207107 0.000000 -0.707107
v -2.331470 0.000000 -0.555570
v -2.423880 0.000000 -0.382683
v -2.480785 0.000000 -0.195090
v -2.500000 0.000000 0.000000
v -2.480785 0.000000 0.195090
v -2.423880 0.000000 0.382683
v -2.331470 0.000000 0.555570
v -2.207107 0.000000 0.707107
v -2.055570 0.000000 0.831470
v -1.882683 0.000000 0.923880
v -1.695090 0.000000 0.980785
v -1.695090 0.600000 0.980785
v -1.882683 0.600000 0.923880
v -2.055570 0.600000 0.831470
v -2.207107 0.600000 0.707107
v -2.331470 0.600000 0.555570
v -2.423880 0.600000 0.382683
v -2.480785 0.600000 0.195090
v -2.500000 0.600000 0.000000
v -2.480785 0.600000 -0.195090
v -2.423880 0.600000 -0.382683
v -2.331470 0.600000 -0.555570
v -2.207107 0.600000 -0.707107
v -2.055570 0.600000 -0.831470
v -1.882683 0.600000 -0.923880
v -1.695090 0.600000 -0.980785
vt -0.000000 0.900000 0.000000
vt -3.000000 0.900000 0.000000
vt -0.000000 0.300000 0.000000
vt -3.000000 0.300000 0.000000
vt 0.300000 -2.513274 0.000000
vt 0.900000 -2.513274 0.000000
vt 0.300000 -2.333755 0.000000
vt 0.900000 -2.333755 0.000000
vt 0.300000 -2.154235 0.000000
vt 0.900000 -2.154235 0.000000
vt 0.300000 -1.974715 0.000000
vt 0.900000 -1.974715 0.000000
vt 0.300000 -1.795196 0.000000
vt 0.900000 -1.795196 0.000000
vt 0.300000 -1.615676 0.000000
vt 0.900000 -1.615676 0.000000
vt 0.300000 -1.436157 0.000000
vt 0.900000 -1.436157 0.000000
vt 0.300000 -1.256637 0.000000
vt 0.900000 -1.256637 0.000000
vt 0.300000 -1.077117 0.000000
vt 0.900000 -1.077117 0.000000
vt 0.300000 -0.897598 0.000000
vt 0.900000 -0.897598 0.000000
vt 0.300000 -0.718078 0.000000
vt 0.900000 -0.718078 0.000000
vt 0.300000 -0.538559 0.000000
vt 0.900000 -0.538559 0.000000
vt 0.300000 -0.359039 0.000000
vt 0.900000 -0.359039 0.000000
vt 0.300000 -0.179520 0.000000
vt 0.900000 -0.179520 0.000000
vt 0.300000 0.000000 0.000000
vt 0.900000 0.000000 0.000000
vt -0.000000 0.900000 0.000000
vt -3.000000 0.900000 0.000000
vt -0.000000 0.300000 0.000000
vt -3.000000 0.300000 0.000000
vt 0.300000 -2.513274 0.000000
vt 0.900000 -2.513274 0.000000
vt 0.300000 -2.333755 0.000000
vt 0.900000 -2.333755 0.000000
vt 0.300000 -2.154235 0.000000
vt 0.900000 -2.154235 0.000000
vt 0.300000 -1.974715 0.000000
vt 0.900000 -1.974715 0.000000
vt 0.300000 -1.795196 0.000000
vt 0.900000 -1.795196 0.000000
vt 0.300000 -1.615676 0.000000
vt 0.900000 -1.615676 0.000000
vt 0.300000 -1.436157 0.000000
vt 0.900000 -1.436157 0.000000
vt 0.300000 -1.256637 0.000000
vt 0.900000 -1.256637 0.000000
vt 0.300000 -1.077117 0.000000
vt 0.900000 -1.077117 0.000000
vt 0.300000 -0.897598 0.000000
vt 0.900000 -0.897598 0.000000
vt 0.300000 -0.718078 0.000000
vt 0.900000 -0.718078 0.000000
vt 0.300000 -0.538559 0.000000
vt 0.900000 -0.538559 0.000000
vt 0.300000 -0.359039 0.000000
vt 0.900000 -0.359039 0.000000
vt 0.300000 -0.179520 0.000000
vt 0.900000 -0.179520 0.000000
vt 0.300000 0.000000 0.000000
vt 0.900000 0.000000 0.000000
vt -0.000000 0.000000 0.000000
vt 3.000000 0.000000 0.000000
vt -0.000000 0.600000 0.000000
vt 3.000000 0.600000 0.000000
vt -0.600000 0.000000 0.000000
vt -0.000000 -0.000000 0.000000
vt -0.600000 0.196350 0.000000
vt -0.000000 0.196350 0.000000
vt -0.000000 0.392699 0.000000
vt -0.600000 0.392699 0.000000
vt -0.000000 0.589049 0.000000
vt -0.600000 0.589049 0.000000
vt -0.000000 0.785398 0.000000
vt -0.600000 0.785398 0.000000
vt -0.000000 0.981748 0.000000
vt -0.600000 0.981748 0.000000
vt -0.000000 1.178097 0.000000
vt -0.600000 1.178097 0.000000
vt -0.000000 1.374447 0.000000
vt -0.600000 1.374447 0.000000
vt -0.000000 1.570796 0.000000
vt -0.600000 1.570796 0.000000
vt -0.000000 1.767146 0.000000
vt -0.600000 1.767146 0.000000
vt -0.000000 1.963495 0.000000
vt -0.600000 1.963495 0.000000
vt -0.000000 2.159845 0.000000
vt -0.600000 2.159845 0.000000
vt -0.000000 2.356195 0.000000
vt -0.600000 2.356195 0.000000
vt -0.000000 2.552544 0.000000
vt -0.600000 2.552544 0.000000
vt -0.000000 2.748894 0.000000
vt -0.600000 2.748894 0.000000
vt -0.000000 2.945243 0.000000
vt -0.600000 2.945243 0.000000
vt -0.600000 3.141593 0.000000
vt -0.000000 3.141593 0.000000
vt 0.000000 0.000000 0.000000
vt 3.000000 0.000000 0.000000
vt 0.000000 0.600000 0.000000
vt 3.000000 0.600000 0.000000
vt -0.600000 -1.570796 0.000000
vt -0.000000 -1.570796 0.000000
vt -0.600000 -1.374447 0.000000
vt -0.000000 -1.374447 0.000000
vt -0.000000 -1.178097 0.000000
vt -0.600000 -1.178097 0.000000
vt -0.000000 -0.981748 0.000000
vt -0.600000 -0.981748 0.000000
vt -0.000000 -0.785398 0.000000
vt -0.600000 -0.785398 0.000000
vt -0.000000 -0.589049 0.000000
vt -0.600000 -0.589049 0.000000
vt -0.000000 -0.392699 0.000000
vt -0.600000 -0.392699 0.000000
vt -0.000000 -0.196350 0.000000
vt -0.600000 -0.196350 0.000000
vt -0.000000 0.000000 0.000000
vt -0.600000 0.000000 0.000000
vt -0.000000 0.196350 0.000000
vt -0.600000 0.196350 0.000000
vt -0.000000 0.392699 0.000000
vt -0.600000 0.392699 0.000000
vt -0.000000 0.589049 0.000000
vt -0.600000 0.589049 0.000000
vt -0.000000 0.785398 0.000000
vt -0.600000 0.785398 0.000000
vt -0.000000 0.981748 0.000000
vt -0.600000 0.981748 0.000000
vt -0.000000 1.178097 0.000000
vt -0.600000 1.178097 0.000000
vt -0.000000 1.374447 0.000000
vt -0.600000 1.374447 0.000000
vt -0.600000 1.570796 0.000000
vt -0.000000 1.570796 0.000000
vt 1.500000 0.800000 0.000000
vt -1.500000 1.000000 0.000000
vt -1.500000 0.800000 0.000000
vt -1.695090 0.980785 0.000000
vt -1.678017 0.779942 0.000000
vt -1.882683 0.923880 0.000000
vt -2.055570 0.831470 0.000000
vt 1.678017 0.779942 0.000000
vt 1.695090 0.980785 0.000000
vt 1.500000 1.000000 0.000000
vt 1.847107 0.720775 0.000000
vt 2.055570 0.831470 0.000000
vt 1.882683 0.923880 0.000000
vt 2.207107 0.707107 0.000000
vt 1.998792 0.625465 0.000000
vt 2.331470 0.555570 0.000000
vt 2.125465 0.498792 0.000000
vt 2.423880 0.382683 0.000000
vt 2.220775 0.347107 0.000000
vt 2.480785 0.195090 0.000000
vt 2.279942 0.178017 0.000000
vt 2.500000 -0.000000 0.000000
vt 2.300000 -0.000000 0.000000
vt 2.279942 -0.178017 0.000000
vt 2.480785 -0.195090 0.000000
vt 2.220775 -0.347107 0.000000
vt 2.423880 -0.382683 0.000000
vt 2.125465 -0.498792 0.000000
vt 2.331470 -0.555570 0.000000
vt 1.998792 -0.625465 0.000000
vt 2.207107 -0.707107 0.000000
vt 1.847107 -0.720775 0.000000
vt 2.055570 -0.831470 0.000000
vt 1.678017 -0.779942 0.000000
vt 1.882683 -0.923880 0.000000
vt 1.695090 -0.980785 0.000000
vt 1.500000 -0.800000 0.000000
vt 1.500000 -1.000000 0.000000
vt -1.500000 -0.800000 0.000000
vt -1.500000 -1.000000 0.000000
vt -1.695090 -0.980785 0.000000
vt -1.678017 -0.779942 0.000000
vt -1.882683 -0.923880 0.000000
vt -2.055570 -0.831470 0.000000
vt -1.847107 -0.720775 0.000000
vt -2.207107 -0.707107 0.000000
vt -1.998792 -0.625465 0.000000
vt -2.331470 -0.555570 0.000000
vt -2.125465 -0.498792 0.000000
vt -2.423880 -0.382683 0.000000
vt -2.220775 -0.347107 0.000000
vt -2.480785 -0.195090 0.000000
vt -2.279942 -0.178017 0.000000
vt -2.500000 0.000000 0.000000
vt -2.300000 0.000000 0.000000
vt -2.279942 0.178017 0.000000
vt -2.480785 0.195090 0.000000
vt -2.220775 0.347107 0.000000
vt -2.423880 0.382683 0.000000
vt -2.125465 0.498792 0.000000
vt -2.331470 0.555570 0.000000
vt -1.998792 0.625465 0.000000
vt -2.207107 0.707107 0.000000
vt -1.847107 0.720775 0.000000
vt 1.500000 0.800000 0.000000
vt -1.500000 1.000000 0.000000
vt -1.500000 0.800000 0.000000
vt -1.695090 0.980785 0.000000
vt -1.678017 0.779942 0.000000
vt -1.882683 0.923880 0.000000
vt -2.055570 0.831470 0.000000
vt 1.678017 0.779942 0.000000
vt 1.695090 0.980785 0.000000
vt 1.500000 1.000000 0.000000
vt 1.847107 0.720775 0.000000
vt 2.055570 0.831470 0.000000
vt 1.882683 0.923880 0.000000
vt 2.207107 0.707107 0.000000
vt 1.998792 0.625465 0.000000
vt 2.331470 0.555570 0.000000
vt 2.125465 0.498792 0.000000
vt 2.423880 0.382683 0.000000
vt 2.220775 0.347107 0.000000
vt 2.480785 0.195090 0.000000
vt 2.279942 0.178017 0.000000
vt 2.500000 0.000000 0.000000
vt 2.300000 0.000000 0.000000
vt 2.279942 -0.178017 0.000000
vt 2.480785 -0.195090 0.000000
vt 2.220775 -0.347107 0.000000
vt 2.423880 -0.382683 0.000000
vt 2.125465 -0.498792 0.000000
vt 2.331470 -0.555570 0.000000
vt 1.998792 -0.625465 0.000000
vt 2.207107 -0.707107 0.000000
vt 1.847107 -0.720775 0.000000
vt 2.055570 -0.831470 0.000000
vt 1.678017 -0.779942 0.000000
vt 1.882683 -0.923880 0.000000
vt 1.695090 -0.980785 0.000000
vt 1.500000 -0.800000 0.000000
vt 1.500000 -1.000000 0.000000
vt -1.500000 -0.800000 0.000000
vt -1.500000 -1.000000 0.000000
vt -1.695090 -0.980785 0.000000
vt -1.678017 -0.779942 0.000000
vt -1.882683 -0.923880 0.000000
vt -2.055570 -0.831470 0.000000
vt -1.847107 -0.720775 0.000000
vt -2.207107 -0.707107 0.000000
vt -1.998792 -0.625465 0.000000
vt -2.331470 -0.555570 0.000000
vt -2.125465 -0.498792 0.000000
vt -2.423880 -0.382683 0.000000
vt -2.220775 -0.347107 0.000000
vt -2.480785 -0.195090 0.000000
vt -2.279942 -0.178017 0.000000
vt -2.500000 -0.000000 0.000000
vt -2.300000 -0.000000 0.000000
vt -2.279942 0.178017 0.000000
vt -2.480785 0.195090 0.000000
vt -2.220775 0.347107 0.000000
vt -2.423880 0.382683 0.000000
vt -2.125465 0.498792 0.000000
vt -2.331470 0.555570 0.000000
vt -1.998792 0.625465 0.000000
vt -2.207107 0.707107 0.000000
vt -1.847107 0.720775 0.000000
vn -0.000000 -0.000000 -1.000000
vn -0.000000 -0.000000 -1.000000
vn -0.000000 -0.000000 -1.000000
vn -0.000000 -0.000000 -1.000000
vn 0.000000 -0.000000 1.000000
vn 0.000000 -0.000000 1.000000
vn 0.222521 -0.000000 0.974928
vn 0.222521 -0.000000 0.974928
vn 0.433884 -0.000000 0.900969
vn 0.433884 -0.000000 0.900969
vn 0.623490 -0.000000 0.781831
vn 0.623490 -0.000000 0.781831
vn 0.781831 -0.000000 0.623490
vn 0.781831 -0.000000 0.623490
vn 0.900969 -0.000000 0.433884
vn 0.900969 -0.000000 0.433884
vn 0.974928 -0.000000 0.222521
vn 0.974928 -0.000000 0.222521
vn 1.000000 0.000000 -0.000000
vn 1.000000 0.000000 -0.000000
vn 0.974928 0.000000 -0.222521
vn 0.974928 0.000000 -0.222521
vn 0.900969 0.000000 -0.433884
vn 0.900969 0.000000 -0.433884
vn 0.781831 0.000000 -0.623490
vn 0.781831 0.000000 -0.623490
vn 0.623490 0.000000 -0.781831
vn 0.623490 0.000000 -0.781831
vn 0.433884 0.000000 -0.900969
vn 0.433884 0.000000 -0.900969
vn 0.222521 0.000000 -0.974928
vn 0.222521 0.000000 -0.974928
vn -0.000000 -0.000000 1.000000
vn -0.000000 -0.000000 1.000000
vn -0.222521 0.000000 -0.974928
vn -0.222521 0.000000 -0.974928
vn -0.433884 0.000000 -0.900969
vn -0.433884 0.000000 -0.900969
vn -0.623490 0.000000 -0.781831
vn -0.623490 0.000000 -0.781831
vn -0.781831 0.000000 -0.623490
vn -0.781831 0.000000 -0.623490
vn -0.900969 0.000000 -0.433884
vn -0.900969 0.000000 -0.433884
vn -0.974928 0.000000 -0.222521
vn -0.974928 0.000000 -0.222521
vn -1.000000 0.000000 0.000000
vn -1.000000 0.000000 -0.000000
vn -0.974928 0.000000 0.222521
vn -0.974928 0.000000 0.222521
vn -0.900969 0.000000 0.433884
vn -0.900969 0.000000 0.433884
vn -0.781831 0.000000 0.623490
vn -0.781831 0.000000 0.623490
vn -0.623490 0.000000 0.781831
vn -0.623490 0.000000 0.781831
vn -0.433884 0.000000 0.900969
vn -0.433884 0.000000 0.900969
vn -0.222521 0.000000 0.974928
vn -0.222521 0.000000 0.974928
vn 0.000000 0.000000 -1.000000
vn 0.000000 0.000000 -1.000000
vn 0.000000 0.000000 -1.000000
vn 0.000000 0.000000 -1.000000
vn -0.000000 -0.000000 1.000000
vn -0.000000 -0.000000 1.000000
vn 0.195090 -0.000000 0.980785
vn 0.195090 -0.000000 0.980785
vn 0.382683 -0.000000 0.923880
vn 0.382683 -0.000000 0.923880
vn 0.555570 -0.000000 0.831470
vn 0.555570 -0.000000 0.831470
vn 0.707107 -0.000000 0.707107
vn 0.707107 -0.000000 0.707107
vn 0.831470 -0.000000 0.555570
vn 0.831470 -0.000000 0.555570
vn 0.923880 -0.000000 0.382683
vn 0.923880 -0.000000 0.382683
vn 0.980785 -0.000000 0.195090
vn 0.980785 -0.000000 0.195090
vn 1.000000 -0.000000 0.000000
vn 1.000000 -0.000000 0.000000
vn 0.980785 -0.000000 -0.195090
vn 0.980785 -0.000000 -0.195090
vn 0.923880 -0.000000 -0.382683
vn 0.923880 -0.000000 -0.382683
vn 0.831470 -0.000000 -0.555570
vn 0.831470 -0.000000 -0.555570
vn 0.707107 -0.000000 -0.707107
vn 0.707107 -0.000000 -0.707107
vn 0.555570 -0.000000 -0.831470
vn 0.555570 -0.000000 -0.831470
vn 0.382683 -0.000000 -0.923880
vn 0.382683 -0.000000 -0.923880
vn 0.195090 -0.000000 -0.980785
vn 0.195090 -0.000000 -0.980785
vn 0.000000 0.000000 1.000000
vn 0.000000 0.000000 1.000000
vn -0.195090 0.000000 -0.980785
vn -0.195090 0.000000 -0.980785
vn -0.382683 0.000000 -0.923880
vn -0.382683 0.000000 -0.923880
vn -0.555570 0.000000 -0.831470
vn -0.555570 0.000000 -0.831470
vn -0.707107 0.000000 -0.707107
vn -0.707107 0.000000 -0.707107
vn -0.831470 0.000000 -0.555570
vn -0.831470 0.000000 -0.555570
vn -0.923880 0.000000 -0.382683
vn -0.923880 0.000000 -0.382683
vn -0.980785 0.000000 -0.195090
vn -0.980785 0.000000 -0.195090
vn -1.000000 -0.000000 0.000000
vn -1.000000 -0.000000 0.000000
vn -0.980785 -0.000000 0.195090
vn -0.980785 -0.000000 0.195090
vn -0.923880 -0.000000 0.382683
vn -0.923880 -0.000000 0.382683
vn -0.831470 -0.000000 0.555570
vn -0.831470 -0.000000 0.555570
vn -0.707107 -0.000000 0.707107
vn -0.707107 -0.000000 0.707107
vn -0.555570 -0.000000 0.831470
vn -0.555570 -0.000000 0.831470
vn -0.382683 -0.000000 0.923880
vn -0.382683 -0.000000 0.923880
vn -0.195090 -0.000000 0.980785
vn -0.195090 -0.000000 0.980785
vn 0.000000 1.000000 0.000000
vn 0.000000 1.000000 0.000000
vn 0.000000 1.000000 0.000000
vn 0.000000 1.000000 0.000000
vn 0.000000 1.000000 0.000000
vn 0.000000 1.000000 0.000000
vn 0.000000 1.000000 0.000000
vn 0.000000 1.000000 0.000000
vn 0.000000 1.000000 0.000000
vn 0.000000 1.000000 0.000000
vn 0.000000 1.000000 0.000000
vn 0.000000 1.000000 0.000000
vn 0.000000 1.000000 0.000000
vn 0.000000 1.000000 0.000000
vn 0.000000 1.000000 0.000000
vn 0.000000 1.000000 0.000000
vn 0.000000 1.000000 0.000000
vn 0.000000 1.000000 0.000000
vn 0.000000 1.000000 0.000000
vn 0.000000 1.000000 0.000000
vn 0.000000 1.000000 0.000000
vn 0.000000 1.000000 0.000000
vn 0.000000 1.000000 0.000000
vn 0.000000 1.000000 0.000000
vn 0.000000 1.000000 0.000000
vn 0.000000 1.000000 0.000000
vn 0.000000 1.000000 0.000000
vn 0.000000 1.000000 0.000000
vn 0.000000 1.000000 0.000000
vn 0.000000 1.000000 0.000000
vn 0.000000 1.000000 0.000000
vn 0.000000 1.000000 0.000000
vn 0.000000 1.000000 0.000000
vn 0.000000 1.000000 0.000000
vn 0.000000 1.000000 0.000000
vn 0.000000 1.000000 0.000000
vn 0.000000 1.000000 0.000000
vn 0.000000 1.000000 0.000000
vn 0.000000 1.000000 0.000000
vn 0.000000 1.000000 0.000000
vn 0.000000 1.000000 0.000000
vn 0.000000 1.000000 0.000000
vn 0.000000 1.000000 0.000000
vn 0.000000 1.000000 0.000000
vn 0.000000 1.000000 0.000000
vn 0.000000 1.000000 0.000000
vn 0.000000 1.000000 0.000000
vn 0.000000 1.000000 0.000000
vn 0.000000 1.000000 0.000000
vn 0.000000 1.000000 0.000000
vn 0.000000 1.000000 0.000000
vn 0.000000 1.000000 0.000000
vn 0.000000 1.000000 0.000000
vn 0.000000 1.000000 0.000000
vn 0.000000 1.000000 0.000000
vn 0.000000 1.000000 0.000000
vn 0.000000 1.000000 0.000000
vn 0.000000 1.000000 0.000000
vn 0.000000 1.000000 0.000000
vn 0.000000 1.000000 0.000000
vn 0.000000 1.000000 0.000000
vn 0.000000 1.000000 0.000000
vn 0.000000 1.000000 0.000000
vn 0.000000 1.000000 0.000000
vn -0.000000 -1.000000 -0.000000
vn -0.000000 -1.000000 -0.000000
vn -0.000000 -1.000000 -0.000000
vn -0.000000 -1.000000 -0.000000
vn -0.000000 -1.000000 -0.000000
vn -0.000000 -1.000000 -0.000000
vn -0.000000 -1.000000 -0.000000
vn -0.000000 -1.000000 -0.000000
vn -0.000000 -1.000000 -0.000000
vn -0.000000 -1.000000 -0.000000
vn -0.000000 -1.000000 -0.000000
vn -0.000000 -1.000000 -0.000000
vn -0.000000 -1.000000 -0.000000
vn -0.000000 -1.000000 -0.000000
vn -0.000000 -1.000000 -0.000000
vn -0.000000 -1.000000 -0.000000
vn -0.000000 -1.000000 -0.000000
vn -0.000000 -1.000000 -0.000000
vn -0.000000 -1.000000 -0.000000
vn -0.000000 -1.000000 -0.000000
vn -0.000000 -1.000000 -0.000000
vn -0.000000 -1.000000 -0.000000
vn -0.000000 -1.000000 -0.000000
vn -0.000000 -1.000000 -0.000000
vn -0.000000 -1.000000 -0.000000
vn -0.000000 -1.000000 -0.000000
vn -0.000000 -1.000000 -0.000000
vn -0.000000 -1.000000 -0.000000
vn -0.000000 -1.000000 -0.000000
vn -0.000000 -1.000000 -0.000000
vn -0.000000 -1.000000 -0.000000
vn -0.000000 -1.000000 -0.000000
vn -0.000000 -1.000000 -0.000000
vn -0.000000 -1.000000 -0.000000
vn -0.000000 -1.000000 -0.000000
vn -0.000000 -1.000000 -0.000000
vn -0.000000 -1.000000 -0.000000
vn -0.000000 -1.000000 -0.000000
vn -0.000000 -1.000000 -0.000000
vn -0.000000 -1.000000 -0.000000
vn -0.000000 -1.000000 -0.000000
vn -0.000000 -1.000000 -0.000000
vn -0.000000 -1.000000 -0.000000
vn -0.000000 -1.000000 -0.000000
vn -0.000000 -1.000000 -0.000000
vn -0.000000 -1.000000 -0.000000
vn -0.000000 -1.000000 -0.000000
vn -0.000000 -1.000000 -0.000000
vn -0.000000 -1.000000 -0.000000
vn -0.000000 -1.000000 -0.000000
vn -0.000000 -1.000000 -0.000000
vn -0.000000 -1.000000 -0.000000
vn -0.000000 -1.000000 -0.000000
vn -0.000000 -1.000000 -0.000000
vn -0.000000 -1.000000 -0.000000
vn -0.000000 -1.000000 -0.000000
vn -0.000000 -1.000000 -0.000000
vn -0.000000 -1.000000 -0.000000
vn -0.000000 -1.000000 -0.000000
vn -0.000000 -1.000000 -0.000000
vn -0.000000 -1.000000 -0.000000
vn -0.000000 -1.000000 -0.000000
vn -0.000000 -1.000000 -0.000000
vn -0.000000 -1.000000 -0.000000
usemtl Steel_-_Satin
f 1/1/1 2/2/2 4/3/3
f 4/3/3 2/2/2 3/4/4
f 32/5/5 5/6/6 31/7/7
f 31/7/7 5/6/6 6/8/8
f 31/7/7 6/8/8 30/9/9
f 30/9/9 6/8/8 7/10/10
f 30/9/9 7/10/10 29/11/11
f 29/11/11 7/10/10 8/12/12
f 29/11/11 8/12/12 28/13/13
f 28/13/13 8/12/12 9/14/14
f 28/13/13 9/14/14 27/15/15
f 27/15/15 9/14/14 10/16/16
f 27/15/15 10/16/16 26/17/17
f 26/17/17 10/16/16 11/18/18
f 26/17/17 11/18/18 25/19/19
f 25/19/19 11/18/18 12/20/20
f 25/19/19 12/20/20 24/21/21
f 24/21/21 12/20/20 13/22/22
f 24/21/21 13/22/22 23/23/23
f 23/23/23 13/22/22 14/24/24
f 23/23/23 14/24/24 22/25/25
f 22/25/25 14/24/24 15/26/26
f 22/25/25 15/26/26 21/27/27
f 21/27/27 15/26/26 16/28/28
f 21/27/27 16/28/28 20/29/29
f 20/29/29 16/28/28 17/30/30
f 20/29/29 17/30/30 19/31/31
f 19/31/31 17/30/30 18/32/32
f 19/31/31 18/32/32 4/33/3
f 4/33/3 18/32/32 1/34/1
f 33/35/33 5/36/6 34/37/34
f 34/37/34 5/36/6 32/38/5
f 3/39/4 2/40/2 60/41/35
f 60/41/35 2/40/2 35/42/36
f 60/41/35 35/42/36 59/43/37
f 59/43/37 35/42/36 36/44/38
f 59/43/37 36/44/38 58/45/39
f 58/45/39 36/44/38 37/46/40
f 58/45/39 37/46/40 57/47/41
f 57/47/41 37/46/40 38/48/42
f 57/47/41 38/48/42 56/49/43
f 56/49/43 38/48/42 39/50/44
f 56/49/43 39/50/44 55/51/45
f 55/51/45 39/50/44 40/52/46
f 55/51/45 40/52/46 54/53/47
f 54/53/47 40/52/46 41/54/48
f 54/53/47 41/54/48 53/55/49
f 53/55/49 41/54/48 42/56/50
f 53/55/49 42/56/50 52/57/51
f 52/57/51 42/56/50 43/58/52
f 52/57/51 43/58/52 51/59/53
f 51/59/53 43/58/52 44/60/54
f 51/59/53 44/60/54 50/61/55
f 50/61/55 44/60/54 45/62/56
f 50/61/55 45/62/56 49/63/57
f 49/63/57 45/62/56 46/64/58
f 49/63/57 46/64/58 48/65/59
f 48/65/59 46/64/58 47/66/60
f 48/65/59 47/66/60 34/67/34
f 34/67/34 47/66/60 33/68/33
f 61/69/61 62/70/62 64/71/63
f 64/71/63 62/70/62 63/72/64
f 96/73/65 65/74/66 95/75/67
f 95/75/67 65/74/66 66/76/68
f 95/75/67 66/76/68 67/77/69
f 95/75/67 67/77/69 94/78/70
f 94/78/70 67/77/69 68/79/71
f 94/78/70 68/79/71 93/80/72
f 93/80/72 68/79/71 69/81/73
f 93/80/72 69/81/73 92/82/74
f 92/82/74 69/81/73 70/83/75
f 92/82/74 70/83/75 91/84/76
f 91/84/76 70/83/75 71/85/77
f 91/84/76 71/85/77 90/86/78
f 90/86/78 71/85/77 72/87/79
f 90/86/78 72/87/79 89/88/80
f 89/88/80 72/87/79 73/89/81
f 89/88/80 73/89/81 88/90/82
f 88/90/82 73/89/81 74/91/83
f 88/90/82 74/91/83 87/92/84
f 87/92/84 74/91/83 75/93/85
f 87/92/84 75/93/85 86/94/86
f 86/94/86 75/93/85 76/95/87
f 86/94/86 76/95/87 85/96/88
f 85/96/88 76/95/87 77/97/89
f 85/96/88 77/97/89 84/98/90
f 84/98/90 77/97/89 78/99/91
f 84/98/90 78/99/91 83/100/92
f 83/100/92 78/99/91 79/101/93
f 83/100/92 79/101/93 82/102/94
f 82/102/94 79/101/93 80/103/95
f 82/102/94 80/103/95 81/104/96
f 81/104/96 80/103/95 64/105/63
f 64/105/63 80/103/95 61/106/61
f 97/107/97 65/108/66 98/109/98
f 98/109/98 65/108/66 96/110/65
f 63/111/64 62/112/62 128/113/99
f 128/113/99 62/112/62 99/114/100
f 128/113/99 99/114/100 100/115/101
f 128/113/99 100/115/101 127/116/102
f 127/116/102 100/115/101 101/117/103
f 127/116/102 101/117/103 126/118/104
f 126/118/104 101/117/103 102/119/105
f 126/118/104 102/119/105 125/120/106
f 125/120/106 102/119/105 103/121/107
f 125/120/106 103/121/107 124/122/108
f 124/122/108 103/121/107 104/123/109
f 124/122/108 104/123/109 123/124/110
f 123/124/110 104/123/109 105/125/111
f 123/124/110 105/125/111 122/126/112
f 122/126/112 105/125/111 106/127/113
f 122/126/112 106/127/113 121/128/114
f 121/128/114 106/127/113 107/129/115
f 121/128/114 107/129/115 120/130/116
f 120/130/116 107/129/115 108/131/117
f 120/130/116 108/131/117 119/132/118
f 119/132/118 108/131/117 109/133/119
f 119/132/118 109/133/119 118/134/120
f 118/134/120 109/133/119 110/135/121
f 118/134/120 110/135/121 117/136/122
f 117/136/122 110/135/121 111/137/123
f 117/136/122 111/137/123 116/138/124
f 116/138/124 111/137/123 112/139/125
f 116/138/124 112/139/125 115/140/126
f 115/140/126 112/139/125 113/141/127
f 115/140/126 113/141/127 114/142/128
f 114/142/128 113/141/127 98/143/98
f 98/143/98 113/141/127 97/144/97
f 33/145/129 63/146/130 5/147/131
f 5/147/131 63/146/130 128/148/132
f 5/147/131 128/148/132 6/149/133
f 6/149/133 128/148/132 127/150/134
f 6/149/133 127/150/134 126/151/135
f 47/152/136 81/153/137 33/145/129
f 33/145/129 81/153/137 64/154/138
f 33/145/129 64/154/138 63/146/130
f 46/155/139 83/156/140 47/152/136
f 47/152/136 83/156/140 82/157/141
f 47/152/136 82/157/141 81/153/137
f 83/156/140 46/155/139 84/158/142
f 84/158/142 46/155/139 45/159/143
f 84/158/142 45/159/143 85/160/144
f 85/160/144 45/159/143 44/161/145
f 85/160/144 44/161/145 86/162/146
f 86/162/146 44/161/145 43/163/147
f 86/162/146 43/163/147 87/164/148
f 87/164/148 43/163/147 42/165/149
f 87/164/148 42/165/149 88/166/150
f 88/166/150 42/165/149 41/167/151
f 88/166/150 41/167/151 40/168/152
f 88/166/150 40/168/152 89/169/153
f 89/169/153 40/168/152 39/170/154
f 89/169/153 39/170/154 90/171/155
f 90/171/155 39/170/154 38/172/156
f 90/171/155 38/172/156 91/173/157
f 91/173/157 38/172/156 37/174/158
f 91/173/157 37/174/158 92/175/159
f 92/175/159 37/174/158 36/176/160
f 92/175/159 36/176/160 93/177/161
f 93/177/161 36/176/160 35/178/162
f 93/177/161 35/178/162 94/179/163
f 94/179/163 35/178/162 95/180/164
f 95/180/164 35/178/162 2/181/165
f 95/180/164 2/181/165 96/182/166
f 96/182/166 2/181/165 1/183/167
f 96/182/166 1/183/167 98/184/168
f 98/184/168 1/183/167 114/185/169
f 114/185/169 1/183/167 18/186/170
f 114/185/169 18/186/170 115/187/171
f 115/187/171 18/186/170 116/188/172
f 116/188/172 18/186/170 17/189/173
f 116/188/172 17/189/173 117/190/174
f 117/190/174 17/189/173 16/191/175
f 117/190/174 16/191/175 118/192/176
f 118/192/176 16/191/175 15/193/177
f 118/192/176 15/193/177 119/194/178
f 119/194/178 15/193/177 14/195/179
f 119/194/178 14/195/179 120/196/180
f 120/196/180 14/195/179 13/197/181
f 120/196/180 13/197/181 121/198/182
f 121/198/182 13/197/181 12/199/183
f 121/198/182 12/199/183 11/200/184
f 121/198/182 11/200/184 122/201/185
f 122/201/185 11/200/184 10/202/186
f 122/201/185 10/202/186 123/203/187
f 123/203/187 10/202/186 9/204/188
f 123/203/187 9/204/188 124/205/189
f 124/205/189 9/204/188 8/206/190
f 124/205/189 8/206/190 125/207/191
f 125/207/191 8/206/190 7/208/192
f 125/207/191 7/208/192 126/151/135
f 126/151/135 7/208/192 6/149/133
f 32/209/193 61/210/194 34/211/195
f 34/211/195 61/210/194 80/212/196
f 34/211/195 80/212/196 48/213/197
f 48/213/197 80/212/196 79/214/198
f 48/213/197 79/214/198 78/215/199
f 31/216/200 99/217/201 32/209/193
f 32/209/193 99/217/201 62/218/202
f 32/209/193 62/218/202 61/210/194
f 30/219/203 101/220/204 31/216/200
f 31/216/200 101/220/204 100/221/205
f 31/216/200 100/221/205 99/217/201
f 101/220/204 30/219/203 102/222/206
f 102/222/206 30/219/203 29/223/207
f 102/222/206 29/223/207 103/224/208
f 103/224/208 29/223/207 28/225/209
f 103/224/208 28/225/209 104/226/210
f 104/226/210 28/225/209 27/227/211
f 104/226/210 27/227/211 105/228/212
f 105/228/212 27/227/211 26/229/213
f 105/228/212 26/229/213 106/230/214
f 106/230/214 26/229/213 25/231/215
f 106/230/214 25/231/215 24/232/216
f 106/230/214 24/232/216 107/233/217
f 107/233/217 24/232/216 23/234/218
f 107/233/217 23/234/218 108/235/219
f 108/235/219 23/234/218 22/236/220
f 108/235/219 22/236/220 109/237/221
f 109/237/221 22/236/220 21/238/222
f 109/237/221 21/238/222 110/239/223
f 110/239/223 21/238/222 20/240/224
f 110/239/223 20/240/224 111/241/225
f 111/241/225 20/240/224 19/242/226
f 111/241/225 19/242/226 112/243/227
f 112/243/227 19/242/226 113/244/228
f 113/244/228 19/242/226 4/245/229
f 113/244/228 4/245/229 97/246/230
f 97/246/230 4/245/229 3/247/231
f 97/246/230 3/247/231 65/248/232
f 65/248/232 3/247/231 66/249/233
f 66/249/233 3/247/231 60/250/234
f 66/249/233 60/250/234 67/251/235
f 67/251/235 60/250/234 68/252/236
f 68/252/236 60/250/234 59/253/237
f 68/252/236 59/253/237 69/254/238
f 69/254/238 59/253/237 58/255/239
f 69/254/238 58/255/239 70/256/240
f 70/256/240 58/255/239 57/257/241
f 70/256/240 57/257/241 71/258/242
f 71/258/242 57/257/241 56/259/243
f 71/258/242 56/259/243 72/260/244
f 72/260/244 56/259/243 55/261/245
f 72/260/244 55/261/245 73/262/246
f 73/262/246 55/261/245 54/263/247
f 73/262/246 54/263/247 53/264/248
f 73/262/246 53/264/248 74/265/249
f 74/265/249 53/264/248 52/266/250
f 74/265/249 52/266/250 75/267/251
f 75/267/251 52/266/250 51/268/252
f 75/267/251 51/268/252 76/269/253
f 76/269/253 51/268/252 50/270/254
f 76/269/253 50/270/254 77/271/255
f 77/271/255 50/270/254 49/272/256
f 77/271/255 49/272/256 78/215/199
f 78/215/199 49/272/256 48/213/197
g Body2

g Body3

v 1.500000 0.600000 0.800000
v -1.500000 0.600000 0.800000
v -1.500000 0.300000 0.800000
v 1.500000 0.300000 0.800000
v 1.500000 0.600000 -0.800000
v 1.666329 0.600000 -0.782518
v 1.825389 0.600000 -0.730836
v 1.970228 0.600000 -0.647214
v 2.094516 0.600000 -0.535304
v 2.192820 0.600000 -0.400000
v 2.260845 0.600000 -0.247214
v 2.295618 0.600000 -0.083623
v 2.295618 0.600000 0.083623
v 2.260845 0.600000 0.247214
v 2.192820 0.600000 0.400000
v 2.094516 0.600000 0.535304
v 1.970228 0.600000 0.647214
v 1.825389 0.600000 0.730836
v 1.666329 0.600000 0.782518
v 1.666329 0.300000 0.782518
v 1.825389 0.300000 0.730836
v 1.970228 0.300000 0.647214
v 2.094516 0.300000 0.535304
v 2.192820 0.300000 0.400000
v 2.260845 0.300000 0.247214
v 2.295618 0.300000 0.083623
v 2.295618 0.300000 -0.083623
v 2.260845 0.300000 -0.247214
v 2.192820 0.300000 -0.400000
v 2.094516 0.300000 -0.535304
v 1.970228 0.300000 -0.647214
v 1.825389 0.300000 -0.730836
v 1.666329 0.300000 -0.782518
v 1.500000 0.300000 -0.800000
v -1.500000 0.600000 -0.800000
v -1.500000 0.300000 -0.800000
v -1.666329 0.600000 0.782518
v -1.825389 0.600000 0.730836
v -1.970228 0.600000 0.647214
v -2.094516 0.600000 0.535304
v -2.192820 0.600000 0.400000
v -2.260845 0.600000 0.247214
v -2.295618 0.600000 0.083623
v -2.295618 0.600000 -0.083623
v -2.260845 0.600000 -0.247214
v -2.192820 0.600000 -0.400000
v -2.094516 0.600000 -0.535304
v -1.970228 0.600000 -0.647214
v -1.825389 0.600000 -0.730836
v -1.666329 0.600000 -0.782518
v -1.666329 0.300000 -0.782518
v -1.825389 0.300000 -0.730836
v -1.970228 0.300000 -0.647214
v -2.094516 0.300000 -0.535304
v -2.192820 0.300000 -0.400000
v -2.260845 0.300000 -0.247214
v -2.295618 0.300000 -0.083623
v -2.295618 0.300000 0.083623
v -2.260845 0.300000 0.247214
v -2.192820 0.300000 0.400000
v -2.094516 0.300000 0.535304
v -1.970228 0.300000 0.647214
v -1.825389 0.300000 0.730836
v -1.666329 0.300000 0.782518
vt -0.000000 0.000000 0.000000
vt 3.000000 0.000000 0.000000
vt 0.000000 0.300000 0.000000
vt 3.000000 0.300000 0.000000
vt -0.300000 -0.000000 0.000000
vt -0.000000 0.000000 0.000000
vt -0.300000 0.167552 0.000000
vt -0.000000 0.167552 0.000000
vt -0.300000 0.335103 0.000000
vt -0.000000 0.335103 0.000000
vt -0.300000 0.502655 0.000000
vt -0.000000 0.502655 0.000000
vt -0.300000 0.670206 0.000000
vt -0.000000 0.670206 0.000000
vt -0.300000 0.837758 0.000000
vt -0.000000 0.837758 0.000000
vt -0.300000 1.005310 0.000000
vt -0.000000 1.005310 0.000000
vt -0.300000 1.172861 0.000000
vt -0.000000 1.172861 0.000000
vt -0.300000 1.340413 0.000000
vt -0.000000 1.340413 0.000000
vt -0.300000 1.507964 0.000000
vt -0.000000 1.507964 0.000000
vt -0.300000 1.675516 0.000000
vt -0.000000 1.675516 0.000000
vt -0.300000 1.843068 0.000000
vt -0.000000 1.843068 0.000000
vt -0.300000 2.010619 0.000000
vt -0.000000 2.010619 0.000000
vt -0.300000 2.178171 0.000000
vt -0.000000 2.178171 0.000000
vt -0.300000 2.345723 0.000000
vt -0.000000 2.345723 0.000000
vt -0.300000 2.513274 0.000000
vt -0.000000 2.513274 0.000000
vt 0.000000 0.000000 0.000000
vt 3.000000 0.000000 0.000000
vt 0.000000 0.300000 0.000000
vt 3.000000 0.300000 0.000000
vt -0.300000 0.000000 0.000000
vt -0.000000 0.000000 0.000000
vt -0.300000 0.167552 0.000000
vt -0.000000 0.167552 0.000000
vt -0.300000 0.335103 0.000000
vt -0.000000 0.335103 0.000000
vt -0.300000 0.502655 0.000000
vt -0.000000 0.502655 0.000000
vt -0.300000 0.670206 0.000000
vt -0.000000 0.670206 0.000000
vt -0.300000 0.837758 0.000000
vt -0.000000 0.837758 0.000000
vt -0.300000 1.005310 0.000000
vt -0.000000 1.005310 0.000000
vt -0.300000 1.172861 0.000000
vt -0.000000 1.172861 0.000000
vt -0.300000 1.340413 0.000000
vt 0.000000 1.340413 0.000000
vt -0.300000 1.507964 0.000000
vt -0.000000 1.507964 0.000000
vt -0.300000 1.675516 0.000000
vt 0.000000 1.675516 0.000000
vt -0.300000 1.843068 0.000000
vt 0.000000 1.843068 0.000000
vt -0.300000 2.010619 0.000000
vt 0.000000 2.010619 0.000000
vt -0.300000 2.178171 0.000000
vt 0.000000 2.178171 0.000000
vt -0.300000 2.345723 0.000000
vt 0.000000 2.345723 0.000000
vt -0.300000 2.513274 0.000000
vt 0.000000 2.513274 0.000000
vt -1.666329 0.782518 0.000000
vt -1.825389 0.730836 0.000000
vt -1.500000 0.800000 0.000000
vt -1.970228 0.647214 0.000000
vt -2.094516 0.535304 0.000000
vt -2.192820 0.400000 0.000000
vt 2.192820 0.400000 0.000000
vt 1.500000 0.800000 0.000000
vt 2.094516 0.535304 0.000000
vt 1.970228 0.647214 0.000000
vt 2.260845 0.247214 0.000000
vt -2.260845 0.247214 0.000000
vt 2.295618 0.083623 0.000000
vt -2.295618 0.083623 0.000000
vt 2.295618 -0.083623 0.000000
vt -2.295618 -0.083623 0.000000
vt 2.260845 -0.247214 0.000000
vt -2.260845 -0.247214 0.000000
vt 2.192820 -0.400000 0.000000
vt -2.192820 -0.400000 0.000000
vt 1.500000 -0.800000 0.000000
vt -1.500000 -0.800000 0.000000
vt -2.094516 -0.535304 0.000000
vt -1.970228 -0.647214 0.000000
vt -1.825389 -0.730836 0.000000
vt -1.666329 -0.782518 0.000000
vt 1.666329 -0.782518 0.000000
vt 1.825389 -0.730836 0.000000
vt 1.970228 -0.647214 0.000000
vt 2.094516 -0.535304 0.000000
vt 1.825389 0.730836 0.000000
vt 1.666329 0.782518 0.000000
vt 1.666329 -0.782518 0.000000
vt 1.825389 -0.730836 0.000000
vt 1.500000 -0.800000 0.000000
vt 1.970228 -0.647214 0.000000
vt 2.094516 -0.535304 0.000000
vt 2.192820 -0.400000 0.000000
vt -2.192820 -0.400000 0.000000
vt -1.500000 -0.800000 0.000000
vt -2.094516 -0.535304 0.000000
vt -1.970228 -0.647214 0.000000
vt -2.260845 -0.247214 0.000000
vt 2.260845 -0.247214 0.000000
vt -2.295618 -0.083623 0.000000
vt 2.295618 -0.083623 0.000000
vt -2.295618 0.083623 0.000000
vt 2.295618 0.083623 0.000000
vt -2.260845 0.247214 0.000000
vt 2.260845 0.247214 0.000000
vt -2.192820 0.400000 0.000000
vt 2.192820 0.400000 0.000000
vt -1.500000 0.800000 0.000000
vt 1.500000 0.800000 0.000000
vt 2.094516 0.535304 0.000000
vt 1.970228 0.647214 0.000000
vt 1.825389 0.730836 0.000000
vt 1.666329 0.782518 0.000000
vt -1.666329 0.782518 0.000000
vt -1.825389 0.730836 0.000000
vt -1.970228 0.647214 0.000000
vt -2.094516 0.535304 0.000000
vt -1.825389 -0.730836 0.000000
vt -1.666329 -0.782518 0.000000
vn 0.000000 0.000000 1.000000
vn 0.000000 0.000000 1.000000
vn 0.000000 0.000000 1.000000
vn 0.000000 0.000000 1.000000
vn 0.000000 -0.000000 -1.000000
vn 0.000000 -0.000000 -1.000000
vn 0.207912 -0.000000 -0.978148
vn 0.207912 -0.000000 -0.978148
vn 0.406737 -0.000000 -0.913545
vn 0.406737 -0.000000 -0.913545
vn 0.587785 -0.000000 -0.809017
vn 0.587785 -0.000000 -0.809017
vn 0.743145 -0.000000 -0.669131
vn 0.743145 -0.000000 -0.669131
vn 0.866025 -0.000000 -0.500000
vn 0.866025 -0.000000 -0.500000
vn 0.951057 -0.000000 -0.309017
vn 0.951057 -0.000000 -0.309017
vn 0.994522 -0.000000 -0.104528
vn 0.994522 -0.000000 -0.104528
vn 0.994522 0.000000 0.104528
vn 0.994522 0.000000 0.104528
vn 0.951057 0.000000 0.309017
vn 0.951057 0.000000 0.309017
vn 0.866025 0.000000 0.500000
vn 0.866025 0.000000 0.500000
vn 0.743145 0.000000 0.669131
vn 0.743145 0.000000 0.669131
vn 0.587785 0.000000 0.809017
vn 0.587785 0.000000 0.809017
vn 0.406737 0.000000 0.913545
vn 0.406737 0.000000 0.913545
vn 0.207912 0.000000 0.978148
vn 0.207912 0.000000 0.978148
vn 0.000000 0.000000 -1.000000
vn 0.000000 0.000000 -1.000000
vn -0.207912 -0.000000 0.978148
vn -0.207912 -0.000000 0.978148
vn -0.406737 -0.000000 0.913545
vn -0.406737 -0.000000 0.913545
vn -0.587785 -0.000000 0.809017
vn -0.587785 -0.000000 0.809017
vn -0.743145 -0.000000 0.669131
vn -0.743145 -0.000000 0.669131
vn -0.866025 -0.000000 0.500000
vn -0.866025 -0.000000 0.500000
vn -0.951057 -0.000000 0.309017
vn -0.951057 -0.000000 0.309017
vn -0.994522 -0.000000 0.104528
vn -0.994522 -0.000000 0.104528
vn -0.994522 -0.000000 -0.104528
vn -0.994522 -0.000000 -0.104528
vn -0.951057 -0.000000 -0.309017
vn -0.951057 -0.000000 -0.309017
vn -0.866025 -0.000000 -0.500000
vn -0.866025 -0.000000 -0.500000
vn -0.743145 -0.000000 -0.669131
vn -0.743145 -0.000000 -0.669131
vn -0.587785 -0.000000 -0.809017
vn -0.587785 -0.000000 -0.809017
vn -0.406737 -0.000000 -0.913545
vn -0.406737 -0.000000 -0.913545
vn -0.207912 -0.000000 -0.978148
vn -0.207912 -0.000000 -0.978148
vn 0.000000 -1.000000 0.000000
vn 0.000000 -1.000000 0.000000
vn 0.000000 -1.000000 0.000000
vn 0.000000 -1.000000 0.000000
vn 0.000000 -1.000000 0.000000
vn 0.000000 -1.000000 0.000000
vn 0.000000 -1.000000 0.000000
vn 0.000000 -1.000000 0.000000
vn 0.000000 -1.000000 0.000000
vn 0.000000 -1.000000 0.000000
vn 0.000000 -1.000000 0.000000
vn 0.000000 -1.000000 0.000000
vn 0.000000 -1.000000 0.000000
vn 0.000000 -1.000000 0.000000
vn 0.000000 -1.000000 0.000000
vn 0.000000 -1.000000 0.000000
vn 0.000000 -1.000000 0.000000
vn 0.000000 -1.000000 0.000000
vn 0.000000 -1.000000 0.000000
vn 0.000000 -1.000000 0.000000
vn 0.000000 -1.000000 0.000000
vn 0.000000 -1.000000 0.000000
vn 0.000000 -1.000000 0.000000
vn 0.000000 -1.000000 0.000000
vn 0.000000 -1.000000 0.000000
vn 0.000000 -1.000000 0.000000
vn 0.000000 -1.000000 0.000000
vn 0.000000 -1.000000 0.000000
vn 0.000000 -1.000000 0.000000
vn 0.000000 -1.000000 0.000000
vn 0.000000 -1.000000 0.000000
vn 0.000000 -1.000000 0.000000
vn -0.000000 1.000000 -0.000000
vn -0.000000 1.000000 -0.000000
vn -0.000000 1.000000 -0.000000
vn -0.000000 1.000000 -0.000000
vn -0.000000 1.000000 -0.000000
vn -0.000000 1.000000 -0.000000
vn -0.000000 1.000000 -0.000000
vn -0.000000 1.000000 -0.000000
vn -0.000000 1.000000 -0.000000
vn -0.000000 1.000000 -0.000000
vn -0.000000 1.000000 -0.000000
vn -0.000000 1.000000 -0.000000
vn -0.000000 1.000000 -0.000000
vn -0.000000 1.000000 -0.000000
vn -0.000000 1.000000 -0.000000
vn -0.000000 1.000000 -0.000000
vn -0.000000 1.000000 -0.000000
vn -0.000000 1.000000 -0.000000
vn -0.000000 1.000000 -0.000000
vn -0.000000 1.000000 -0.000000
vn -0.000000 1.000000 -0.000000
vn -0.000000 1.000000 -0.000000
vn -0.000000 1.000000 -0.000000
vn -0.000000 1.000000 -0.000000
vn -0.000000 1.000000 -0.000000
vn -0.000000 1.000000 -0.000000
vn -0.000000 1.000000 -0.000000
vn -0.000000 1.000000 -0.000000
vn -0.000000 1.000000 -0.000000
vn -0.000000 1.000000 -0.000000
vn -0.000000 1.000000 -0.000000
vn -0.000000 1.000000 -0.000000
f 129/273/257 130/274/258 132/275/259
f 132/275/259 130/274/258 131/276/260
f 162/277/261 133/278/262 161/279/263
f 161/279/263 133/278/262 134/280/264
f 161/279/263 134/280/264 160/281/265
f 160/281/265 134/280/264 135/282/266
f 160/281/265 135/282/266 159/283/267
f 159/283/267 135/282/266 136/284/268
f 159/283/267 136/284/268 158/285/269
f 158/285/269 136/284/268 137/286/270
f 158/285/269 137/286/270 157/287/271
f 157/287/271 137/286/270 138/288/272
f 157/287/271 138/288/272 156/289/273
f 156/289/273 138/288/272 139/290/274
f 156/289/273 139/290/274 155/291/275
f 155/291/275 139/290/274 140/292/276
f 155/291/275 140/292/276 154/293/277
f 154/293/277 140/292/276 141/294/278
f 154/293/277 141/294/278 153/295/279
f 153/295/279 141/294/278 142/296/280
f 153/295/279 142/296/280 152/297/281
f 152/297/281 142/296/280 143/298/282
f 152/297/281 143/298/282 151/299/283
f 151/299/283 143/298/282 144/300/284
f 151/299/283 144/300/284 150/301/285
f 150/301/285 144/300/284 145/302/286
f 150/301/285 145/302/286 149/303/287
f 149/303/287 145/302/286 146/304/288
f 149/303/287 146/304/288 148/305/289
f 148/305/289 146/304/288 147/306/290
f 148/305/289 147/306/290 132/307/259
f 132/307/259 147/306/290 129/308/257
f 163/309/291 133/310/262 164/311/292
f 164/311/292 133/310/262 162/312/261
f 131/313/260 130/314/258 192/315/293
f 192/315/293 130/314/258 165/316/294
f 192/315/293 165/316/294 191/317/295
f 191/317/295 165/316/294 166/318/296
f 191/317/295 166/318/296 190/319/297
f 190/319/297 166/318/296 167/320/298
f 190/319/297 167/320/298 189/321/299
f 189/321/299 167/320/298 168/322/300
f 189/321/299 168/322/300 188/323/301
f 188/323/301 168/322/300 169/324/302
f 188/323/301 169/324/302 187/325/303
f 187/325/303 169/324/302 170/326/304
f 187/325/303 170/326/304 186/327/305
f 186/327/305 170/326/304 171/328/306
f 186/327/305 171/328/306 185/329/307
f 185/329/307 171/328/306 172/330/308
f 185/329/307 172/330/308 184/331/309
f 184/331/309 172/330/308 173/332/310
f 184/331/309 173/332/310 183/333/311
f 183/333/311 173/332/310 174/334/312
f 183/333/311 174/334/312 182/335/313
f 182/335/313 174/334/312 175/336/314
f 182/335/313 175/336/314 181/337/315
f 181/337/315 175/336/314 176/338/316
f 181/337/315 176/338/316 180/339/317
f 180/339/317 176/338/316 177/340/318
f 180/339/317 177/340/318 179/341/319
f 179/341/319 177/340/318 178/342/320
f 179/341/319 178/342/320 164/343/292
f 164/343/292 178/342/320 163/344/291
f 192/345/321 191/346/322 131/347/323
f 131/347/323 191/346/322 190/348/324
f 131/347/323 190/348/324 189/349/325
f 189/349/325 188/350/326 131/347/323
f 131/347/323 188/350/326 152/351/327
f 131/347/323 152/351/327 132/352/328
f 132/352/328 152/351/327 151/353/329
f 132/352/328 151/353/329 150/354/330
f 152/351/327 188/350/326 153/355/331
f 153/355/331 188/350/326 187/356/332
f 153/355/331 187/356/332 154/357/333
f 154/357/333 187/356/332 186/358/334
f 154/357/333 186/358/334 155/359/335
f 155/359/335 186/358/334 185/360/336
f 155/359/335 185/360/336 156/361/337
f 156/361/337 185/360/336 184/362/338
f 156/361/337 184/362/338 157/363/339
f 157/363/339 184/362/338 183/364/340
f 157/363/339 183/364/340 162/365/341
f 162/365/341 183/364/340 164/366/342
f 164/366/342 183/364/340 182/367/343
f 164/366/342 182/367/343 181/368/344
f 181/368/344 180/369/345 164/366/342
f 164/366/342 180/369/345 179/370/346
f 161/371/347 160/372/348 162/365/341
f 162/365/341 160/372/348 159/373/349
f 162/365/341 159/373/349 158/374/350
f 158/374/350 157/363/339 162/365/341
f 150/354/330 149/375/351 132/352/328
f 132/352/328 149/375/351 148/376/352
f 178/377/353 177/378/354 163/379/355
f 163/379/355 177/378/354 176/380/356
f 163/379/355 176/380/356 175/381/357
f 175/381/357 174/382/358 163/379/355
f 163/379/355 174/382/358 138/383/359
f 163/379/355 138/383/359 133/384/360
f 133/384/360 138/383/359 137/385/361
f 133/384/360 137/385/361 136/386/362
f 138/383/359 174/382/358 139/387/363
f 139/387/363 174/382/358 173/388/364
f 139/387/363 173/388/364 140/389/365
f 140/389/365 173/388/364 172/390/366
f 140/389/365 172/390/366 141/391/367
f 141/391/367 172/390/366 171/392/368
f 141/391/367 171/392/368 142/393/369
f 142/393/369 171/392/368 170/394/370
f 142/393/369 170/394/370 143/395/371
f 143/395/371 170/394/370 169/396/372
f 143/395/371 169/396/372 129/397/373
f 129/397/373 169/396/372 130/398/374
f 130/398/374 169/396/372 168/399/375
f 130/398/374 168/399/375 167/400/376
f 167/400/376 166/401/377 130/398/374
f 130/398/374 166/401/377 165/402/378
f 147/403/379 146/404/380 129/397/373
f 129/397/373 146/404/380 145/405/381
f 129/397/373 145/405/381 144/406/382
f 144/406/382 143/395/371 129/397/373
f 136/386/362 135/407/383 133/384/360
f 133/384/360 135/407/383 134/408/384
# 192 vertices
# 408 texture params
# 384 normals
# 380 facets

# 3 groups
