# WaveFront *.obj file (generated by Autodesk ATF)

mtllib knob.mtl

g Body2

g Body4

v -1.500000 0.300000 -0.800000
v -1.400000 0.300000 -0.800000
v -1.400000 -0.150000 -0.800000
v -1.500000 -0.150000 -0.800000
v -1.500000 0.300000 0.800000
v -1.619234 0.300000 0.791065
v -1.735804 0.300000 0.764458
v -1.847107 0.300000 0.720775
v -1.950656 0.300000 0.660991
v -2.044138 0.300000 0.586442
v -2.125465 0.300000 0.498792
v -2.192820 0.300000 0.400000
v -2.244699 0.300000 0.292273
v -2.279942 0.300000 0.178017
v -2.297763 0.300000 0.059784
v -2.297763 0.300000 -0.059784
v -2.279942 0.300000 -0.178017
v -2.244699 0.300000 -0.292273
v -2.192820 0.300000 -0.400000
v -2.125465 0.300000 -0.498792
v -2.044138 0.300000 -0.586442
v -1.950656 0.300000 -0.660991
v -1.847107 0.300000 -0.720775
v -1.735804 0.300000 -0.764458
v -1.619234 0.300000 -0.791065
v -1.619234 -0.150000 -0.791065
v -1.735804 -0.150000 -0.764458
v -1.847107 -0.150000 -0.720775
v -1.950656 -0.150000 -0.660991
v -2.044138 -0.150000 -0.586442
v -2.125465 -0.150000 -0.498792
v -2.192820 -0.150000 -0.400000
v -2.244699 -0.150000 -0.292273
v -2.279942 -0.150000 -0.178017
v -2.297763 -0.150000 -0.059784
v -2.297763 -0.150000 0.059784
v -2.279942 -0.150000 0.178017
v -2.244699 -0.150000 0.292273
v -2.192820 -0.150000 0.400000
v -2.125465 -0.150000 0.498792
v -2.044138 -0.150000 0.586442
v -1.950656 -0.150000 0.660991
v -1.847107 -0.150000 0.720775
v -1.735804 -0.150000 0.764458
v -1.619234 -0.150000 0.791065
v -1.500000 -0.150000 0.800000
v -1.400000 0.300000 0.800000
v -1.400000 -0.150000 0.800000
v -1.285732 0.300000 -0.777232
v -1.175939 0.300000 -0.738231
v -1.072914 0.300000 -0.683811
v -0.978810 0.300000 -0.615110
v -0.895590 0.300000 -0.533562
v -0.824994 0.300000 -0.440871
v -0.768496 0.300000 -0.338971
v -0.727275 0.300000 -0.229992
v -0.702193 0.300000 -0.116210
v -0.693774 0.300000 0.000000
v -0.702193 0.300000 0.116210
v -0.727275 0.300000 0.229992
v -0.768496 0.300000 0.338971
v -0.824994 0.300000 0.440871
v -0.895590 0.300000 0.533562
v -0.978810 0.300000 0.615110
v -1.072914 0.300000 0.683811
v -1.175939 0.300000 0.738231
v -1.285732 0.300000 0.777232
v -1.285732 -0.150000 0.777232
v -1.175939 -0.150000 0.738231
v -1.072914 -0.150000 0.683811
v -0.978810 -0.150000 0.615110
v -0.895590 -0.150000 0.533562
v -0.824994 -0.150000 0.440871
v -0.768496 -0.150000 0.338971
v -0.727275 -0.150000 0.229992
v -0.702193 -0.150000 0.116210
v -0.693774 -0.150000 0.000000
v -0.702193 -0.150000 -0.116210
v -0.727275 -0.150000 -0.229992
v -0.768496 -0.150000 -0.338971
v -0.824994 -0.150000 -0.440871
v -0.895590 -0.150000 -0.533562
v -0.978810 -0.150000 -0.615110
v -1.072914 -0.150000 -0.683811
v -1.175939 -0.150000 -0.738231
v -1.285732 -0.150000 -0.777232
vt 0.000000 0.000000 0.000000
vt 0.100000 0.000000 0.000000
vt 0.000000 0.450000 0.000000
vt 0.100000 0.450000 0.000000
vt -0.450000 0.000000 0.000000
vt -0.000000 0.000000 0.000000
vt -0.450000 0.119680 0.000000
vt -0.000000 0.119680 0.000000
vt -0.450000 0.239359 0.000000
vt -0.000000 0.239359 0.000000
vt -0.450000 0.359039 0.000000
vt -0.000000 0.359039 0.000000
vt -0.450000 0.478719 0.000000
vt -0.000000 0.478719 0.000000
vt -0.450000 0.598399 0.000000
vt -0.000000 0.598399 0.000000
vt -0.450000 0.718078 0.000000
vt -0.000000 0.718078 0.000000
vt -0.450000 0.837758 0.000000
vt -0.000000 0.837758 0.000000
vt -0.450000 0.957438 0.000000
vt -0.000000 0.957438 0.000000
vt -0.450000 1.077117 0.000000
vt -0.000000 1.077117 0.000000
vt -0.450000 1.196797 0.000000
vt -0.000000 1.196797 0.000000
vt -0.450000 1.316477 0.000000
vt 0.000000 1.316477 0.000000
vt -0.450000 1.436157 0.000000
vt 0.000000 1.436157 0.000000
vt -0.450000 1.555836 0.000000
vt 0.000000 1.555836 0.000000
vt -0.450000 1.675516 0.000000
vt 0.000000 1.675516 0.000000
vt -0.450000 1.795196 0.000000
vt 0.000000 1.795196 0.000000
vt -0.450000 1.914876 0.000000
vt -0.000000 1.914876 0.000000
vt -0.450000 2.034555 0.000000
vt -0.000000 2.034555 0.000000
vt -0.450000 2.154235 0.000000
vt 0.000000 2.154235 0.000000
vt -0.450000 2.273915 0.000000
vt -0.000000 2.273915 0.000000
vt -0.450000 2.393594 0.000000
vt 0.000000 2.393594 0.000000
vt -0.450000 2.513274 0.000000
vt -0.000000 2.513274 0.000000
vt -0.000000 0.000000 0.000000
vt 0.100000 0.000000 0.000000
vt -0.000000 0.450000 0.000000
vt 0.100000 0.450000 0.000000
vt -0.450000 -1.166158 0.000000
vt -0.000000 -1.166158 0.000000
vt -0.450000 -1.049542 0.000000
vt -0.000000 -1.049542 0.000000
vt -0.000000 -0.932927 0.000000
vt -0.450000 -0.932927 0.000000
vt -0.000000 -0.816311 0.000000
vt -0.450000 -0.816311 0.000000
vt -0.000000 -0.699695 0.000000
vt -0.450000 -0.699695 0.000000
vt -0.000000 -0.583079 0.000000
vt -0.450000 -0.583079 0.000000
vt -0.000000 -0.466463 0.000000
vt -0.450000 -0.466463 0.000000
vt -0.000000 -0.349847 0.000000
vt -0.450000 -0.349847 0.000000
vt -0.000000 -0.233232 0.000000
vt -0.450000 -0.233232 0.000000
vt -0.000000 -0.116616 0.000000
vt -0.450000 -0.116616 0.000000
vt -0.000000 0.000000 0.000000
vt -0.450000 0.000000 0.000000
vt -0.000000 0.116616 0.000000
vt -0.450000 0.116616 0.000000
vt -0.000000 0.233232 0.000000
vt -0.450000 0.233232 0.000000
vt -0.000000 0.349847 0.000000
vt -0.450000 0.349847 0.000000
vt -0.000000 0.466463 0.000000
vt -0.450000 0.466463 0.000000
vt -0.000000 0.583079 0.000000
vt -0.450000 0.583079 0.000000
vt -0.000000 0.699695 0.000000
vt -0.450000 0.699695 0.000000
vt -0.000000 0.816311 0.000000
vt -0.450000 0.816311 0.000000
vt -0.000000 0.932927 0.000000
vt -0.450000 0.932927 0.000000
vt -0.000000 1.049542 0.000000
vt -0.450000 1.049542 0.000000
vt -0.450000 1.166158 0.000000
vt -0.000000 1.166158 0.000000
vt 0.096887 -0.800000 0.000000
vt 0.211155 -0.777232 0.000000
vt -0.003113 -0.800000 0.000000
vt 0.320948 -0.738231 0.000000
vt 0.423973 -0.683811 0.000000
vt 0.518077 -0.615110 0.000000
vt -0.747812 -0.292273 0.000000
vt -0.695933 -0.400000 0.000000
vt -0.628578 -0.498792 0.000000
vt 0.601297 -0.533562 0.000000
vt -0.783055 -0.178017 0.000000
vt 0.671893 -0.440871 0.000000
vt 0.728391 -0.338971 0.000000
vt 0.769612 -0.229992 0.000000
vt -0.800876 -0.059784 0.000000
vt 0.794694 -0.116210 0.000000
vt 0.803113 0.000000 0.000000
vt -0.800876 0.059784 0.000000
vt 0.794694 0.116210 0.000000
vt 0.769612 0.229992 0.000000
vt -0.783055 0.178017 0.000000
vt 0.728391 0.338971 0.000000
vt 0.671893 0.440871 0.000000
vt 0.601297 0.533562 0.000000
vt -0.747812 0.292273 0.000000
vt 0.518077 0.615110 0.000000
vt 0.423973 0.683811 0.000000
vt 0.320948 0.738231 0.000000
vt -0.003113 0.800000 0.000000
vt -0.122347 0.791065 0.000000
vt -0.238917 0.764458 0.000000
vt 0.211155 0.777232 0.000000
vt 0.096887 0.800000 0.000000
vt -0.350220 0.720775 0.000000
vt -0.453769 0.660991 0.000000
vt -0.547251 0.586442 0.000000
vt -0.628578 0.498792 0.000000
vt -0.695933 0.400000 0.000000
vt -0.547251 -0.586442 0.000000
vt -0.453769 -0.660991 0.000000
vt -0.350220 -0.720775 0.000000
vt -0.238917 -0.764458 0.000000
vt -0.122347 -0.791065 0.000000
vt -0.096887 0.800000 0.000000
vt -0.211155 0.777232 0.000000
vt 0.003113 0.800000 0.000000
vt -0.320948 0.738231 0.000000
vt -0.423973 0.683811 0.000000
vt -0.518077 0.615110 0.000000
vt 0.747812 0.292273 0.000000
vt 0.695933 0.400000 0.000000
vt 0.628578 0.498792 0.000000
vt -0.601297 0.533562 0.000000
vt 0.783055 0.178017 0.000000
vt -0.671893 0.440871 0.000000
vt -0.728391 0.338971 0.000000
vt -0.769612 0.229992 0.000000
vt 0.800876 0.059784 0.000000
vt -0.794694 0.116210 0.000000
vt -0.803113 0.000000 0.000000
vt 0.800876 -0.059784 0.000000
vt -0.794694 -0.116210 0.000000
vt -0.769612 -0.229992 0.000000
vt 0.783055 -0.178017 0.000000
vt -0.728391 -0.338971 0.000000
vt -0.671893 -0.440871 0.000000
vt -0.601297 -0.533562 0.000000
vt 0.747812 -0.292273 0.000000
vt -0.518077 -0.615110 0.000000
vt -0.423973 -0.683811 0.000000
vt -0.320948 -0.738231 0.000000
vt 0.003113 -0.800000 0.000000
vt 0.122347 -0.791065 0.000000
vt 0.238917 -0.764458 0.000000
vt -0.211155 -0.777232 0.000000
vt -0.096887 -0.800000 0.000000
vt 0.350220 -0.720775 0.000000
vt 0.453769 -0.660991 0.000000
vt 0.547251 -0.586442 0.000000
vt 0.628578 -0.498792 0.000000
vt 0.695933 -0.400000 0.000000
vt 0.547251 0.586442 0.000000
vt 0.453769 0.660991 0.000000
vt 0.350220 0.720775 0.000000
vt 0.238917 0.764458 0.000000
vt 0.122347 0.791065 0.000000
vn 0.000000 0.000000 -1.000000
vn 0.000000 0.000000 -1.000000
vn 0.000000 0.000000 -1.000000
vn 0.000000 0.000000 -1.000000
vn 0.000000 0.000000 1.000000
vn 0.000000 0.000000 1.000000
vn -0.149042 -0.000000 0.988831
vn -0.149042 -0.000000 0.988831
vn -0.294755 -0.000000 0.955573
vn -0.294755 -0.000000 0.955573
vn -0.433884 -0.000000 0.900969
vn -0.433884 -0.000000 0.900969
vn -0.563320 -0.000000 0.826239
vn -0.563320 -0.000000 0.826239
vn -0.680173 -0.000000 0.733052
vn -0.680173 -0.000000 0.733052
vn -0.781831 -0.000000 0.623490
vn -0.781831 -0.000000 0.623490
vn -0.866025 -0.000000 0.500000
vn -0.866025 -0.000000 0.500000
vn -0.930874 -0.000000 0.365341
vn -0.930874 -0.000000 0.365341
vn -0.974928 -0.000000 0.222521
vn -0.974928 -0.000000 0.222521
vn -0.997204 -0.000000 0.074730
vn -0.997204 -0.000000 0.074730
vn -0.997204 -0.000000 -0.074730
vn -0.997204 -0.000000 -0.074730
vn -0.974928 -0.000000 -0.222521
vn -0.974928 -0.000000 -0.222521
vn -0.930874 -0.000000 -0.365341
vn -0.930874 -0.000000 -0.365341
vn -0.866025 -0.000000 -0.500000
vn -0.866025 -0.000000 -0.500000
vn -0.781831 -0.000000 -0.623490
vn -0.781831 -0.000000 -0.623490
vn -0.680173 -0.000000 -0.733052
vn -0.680173 -0.000000 -0.733052
vn -0.563320 -0.000000 -0.826239
vn -0.563320 -0.000000 -0.826239
vn -0.433884 -0.000000 -0.900969
vn -0.433884 -0.000000 -0.900969
vn -0.294755 -0.000000 -0.955573
vn -0.294755 -0.000000 -0.955573
vn -0.149042 -0.000000 -0.988831
vn -0.149042 -0.000000 -0.988831
vn -0.000000 0.000000 1.000000
vn -0.000000 0.000000 1.000000
vn 0.124035 -0.000000 -0.992278
vn 0.124035 -0.000000 -0.992278
vn 0.265767 -0.000000 -0.964037
vn 0.265767 -0.000000 -0.964037
vn 0.401948 -0.000000 -0.915663
vn 0.401948 -0.000000 -0.915663
vn 0.529734 -0.000000 -0.848164
vn 0.529734 -0.000000 -0.848164
vn 0.646457 -0.000000 -0.762950
vn 0.646457 -0.000000 -0.762950
vn 0.749678 -0.000000 -0.661803
vn 0.749678 -0.000000 -0.661803
vn 0.837242 -0.000000 -0.546833
vn 0.837242 -0.000000 -0.546833
vn 0.907319 -0.000000 -0.420442
vn 0.907319 -0.000000 -0.420442
vn 0.958447 -0.000000 -0.285270
vn 0.958447 -0.000000 -0.285270
vn 0.989557 -0.000000 -0.144140
vn 0.989557 -0.000000 -0.144140
vn 1.000000 0.000000 0.000000
vn 1.000000 0.000000 0.000000
vn 0.989557 0.000000 0.144140
vn 0.989557 0.000000 0.144140
vn 0.958447 0.000000 0.285270
vn 0.958447 0.000000 0.285270
vn 0.907319 0.000000 0.420442
vn 0.907319 0.000000 0.420442
vn 0.837242 0.000000 0.546833
vn 0.837242 0.000000 0.546833
vn 0.749678 0.000000 0.661803
vn 0.749678 0.000000 0.661803
vn 0.646457 0.000000 0.762950
vn 0.646457 0.000000 0.762950
vn 0.529734 0.000000 0.848164
vn 0.529734 0.000000 0.848164
vn 0.401948 0.000000 0.915663
vn 0.401948 0.000000 0.915663
vn 0.265767 0.000000 0.964037
vn 0.265767 0.000000 0.964037
vn 0.124035 0.000000 0.992278
vn 0.124035 0.000000 0.992278
vn 0.000000 -1.000000 0.000000
vn 0.000000 -1.000000 0.000000
vn 0.000000 -1.000000 0.000000
vn 0.000000 -1.000000 0.000000
vn 0.000000 -1.000000 0.000000
vn 0.000000 -1.000000 0.000000
vn 0.000000 -1.000000 0.000000
vn 0.000000 -1.000000 0.000000
vn 0.000000 -1.000000 0.000000
vn 0.000000 -1.000000 0.000000
vn 0.000000 -1.000000 0.000000
vn 0.000000 -1.000000 0.000000
vn 0.000000 -1.000000 0.000000
vn 0.000000 -1.000000 0.000000
vn 0.000000 -1.000000 0.000000
vn 0.000000 -1.000000 0.000000
vn 0.000000 -1.000000 0.000000
vn 0.000000 -1.000000 0.000000
vn 0.000000 -1.000000 0.000000
vn 0.000000 -1.000000 0.000000
vn 0.000000 -1.000000 0.000000
vn 0.000000 -1.000000 0.000000
vn 0.000000 -1.000000 0.000000
vn 0.000000 -1.000000 0.000000
vn 0.000000 -1.000000 0.000000
vn 0.000000 -1.000000 0.000000
vn 0.000000 -1.000000 0.000000
vn 0.000000 -1.000000 0.000000
vn 0.000000 -1.000000 0.000000
vn 0.000000 -1.000000 0.000000
vn 0.000000 -1.000000 0.000000
vn 0.000000 -1.000000 0.000000
vn 0.000000 -1.000000 0.000000
vn 0.000000 -1.000000 0.000000
vn 0.000000 -1.000000 0.000000
vn 0.000000 -1.000000 0.000000
vn 0.000000 -1.000000 0.000000
vn 0.000000 -1.000000 0.000000
vn 0.000000 -1.000000 0.000000
vn 0.000000 -1.000000 0.000000
vn 0.000000 -1.000000 0.000000
vn 0.000000 -1.000000 0.000000
vn 0.000000 -1.000000 0.000000
vn -0.000000 1.000000 -0.000000
vn -0.000000 1.000000 -0.000000
vn -0.000000 1.000000 -0.000000
vn -0.000000 1.000000 -0.000000
vn -0.000000 1.000000 -0.000000
vn -0.000000 1.000000 -0.000000
vn -0.000000 1.000000 -0.000000
vn -0.000000 1.000000 -0.000000
vn -0.000000 1.000000 -0.000000
vn -0.000000 1.000000 -0.000000
vn -0.000000 1.000000 -0.000000
vn -0.000000 1.000000 -0.000000
vn -0.000000 1.000000 -0.000000
vn -0.000000 1.000000 -0.000000
vn -0.000000 1.000000 -0.000000
vn -0.000000 1.000000 -0.000000
vn -0.000000 1.000000 -0.000000
vn -0.000000 1.000000 -0.000000
vn -0.000000 1.000000 -0.000000
vn -0.000000 1.000000 -0.000000
vn -0.000000 1.000000 -0.000000
vn -0.000000 1.000000 -0.000000
vn -0.000000 1.000000 -0.000000
vn -0.000000 1.000000 -0.000000
vn -0.000000 1.000000 -0.000000
vn -0.000000 1.000000 -0.000000
vn -0.000000 1.000000 -0.000000
vn -0.000000 1.000000 -0.000000
vn -0.000000 1.000000 -0.000000
vn -0.000000 1.000000 -0.000000
vn -0.000000 1.000000 -0.000000
vn -0.000000 1.000000 -0.000000
vn -0.000000 1.000000 -0.000000
vn -0.000000 1.000000 -0.000000
vn -0.000000 1.000000 -0.000000
vn -0.000000 1.000000 -0.000000
vn -0.000000 1.000000 -0.000000
vn -0.000000 1.000000 -0.000000
vn -0.000000 1.000000 -0.000000
vn -0.000000 1.000000 -0.000000
vn -0.000000 1.000000 -0.000000
vn -0.000000 1.000000 -0.000000
vn -0.000000 1.000000 -0.000000
usemtl Steel_-_Satin
f 1/1/1 2/2/2 4/3/3
f 4/3/3 2/2/2 3/4/4
f 46/5/5 5/6/6 45/7/7
f 45/7/7 5/6/6 6/8/8
f 45/7/7 6/8/8 44/9/9
f 44/9/9 6/8/8 7/10/10
f 44/9/9 7/10/10 43/11/11
f 43/11/11 7/10/10 8/12/12
f 43/11/11 8/12/12 42/13/13
f 42/13/13 8/12/12 9/14/14
f 42/13/13 9/14/14 41/15/15
f 41/15/15 9/14/14 10/16/16
f 41/15/15 10/16/16 40/17/17
f 40/17/17 10/16/16 11/18/18
f 40/17/17 11/18/18 39/19/19
f 39/19/19 11/18/18 12/20/20
f 39/19/19 12/20/20 38/21/21
f 38/21/21 12/20/20 13/22/22
f 38/21/21 13/22/22 37/23/23
f 37/23/23 13/22/22 14/24/24
f 37/23/23 14/24/24 36/25/25
f 36/25/25 14/24/24 15/26/26
f 36/25/25 15/26/26 35/27/27
f 35/27/27 15/26/26 16/28/28
f 35/27/27 16/28/28 34/29/29
f 34/29/29 16/28/28 17/30/30
f 34/29/29 17/30/30 33/31/31
f 33/31/31 17/30/30 18/32/32
f 33/31/31 18/32/32 32/33/33
f 32/33/33 18/32/32 19/34/34
f 32/33/33 19/34/34 31/35/35
f 31/35/35 19/34/34 20/36/36
f 31/35/35 20/36/36 30/37/37
f 30/37/37 20/36/36 21/38/38
f 30/37/37 21/38/38 29/39/39
f 29/39/39 21/38/38 22/40/40
f 29/39/39 22/40/40 28/41/41
f 28/41/41 22/40/40 23/42/42
f 28/41/41 23/42/42 27/43/43
f 27/43/43 23/42/42 24/44/44
f 27/43/43 24/44/44 26/45/45
f 26/45/45 24/44/44 25/46/46
f 26/45/45 25/46/46 4/47/3
f 4/47/3 25/46/46 1/48/1
f 47/49/47 5/50/6 48/51/48
f 48/51/48 5/50/6 46/52/5
f 3/53/49 2/54/50 86/55/51
f 86/55/51 2/54/50 49/56/52
f 86/55/51 49/56/52 50/57/53
f 86/55/51 50/57/53 85/58/54
f 85/58/54 50/57/53 51/59/55
f 85/58/54 51/59/55 84/60/56
f 84/60/56 51/59/55 52/61/57
f 84/60/56 52/61/57 83/62/58
f 83/62/58 52/61/57 53/63/59
f 83/62/58 53/63/59 82/64/60
f 82/64/60 53/63/59 54/65/61
f 82/64/60 54/65/61 81/66/62
f 81/66/62 54/65/61 55/67/63
f 81/66/62 55/67/63 80/68/64
f 80/68/64 55/67/63 56/69/65
f 80/68/64 56/69/65 79/70/66
f 79/70/66 56/69/65 57/71/67
f 79/70/66 57/71/67 78/72/68
f 78/72/68 57/71/67 58/73/69
f 78/72/68 58/73/69 77/74/70
f 77/74/70 58/73/69 59/75/71
f 77/74/70 59/75/71 76/76/72
f 76/76/72 59/75/71 60/77/73
f 76/76/72 60/77/73 75/78/74
f 75/78/74 60/77/73 61/79/75
f 75/78/74 61/79/75 74/80/76
f 74/80/76 61/79/75 62/81/77
f 74/80/76 62/81/77 73/82/78
f 73/82/78 62/81/77 63/83/79
f 73/82/78 63/83/79 72/84/80
f 72/84/80 63/83/79 64/85/81
f 72/84/80 64/85/81 71/86/82
f 71/86/82 64/85/81 65/87/83
f 71/86/82 65/87/83 70/88/84
f 70/88/84 65/87/83 66/89/85
f 70/88/84 66/89/85 69/90/86
f 69/90/86 66/89/85 67/91/87
f 69/90/86 67/91/87 68/92/88
f 68/92/88 67/91/87 48/93/89
f 48/93/89 67/91/87 47/94/90
f 3/95/91 86/96/92 4/97/93
f 4/97/93 86/96/92 85/98/94
f 4/97/93 85/98/94 84/99/95
f 83/100/96 33/101/97 84/99/95
f 84/99/95 33/101/97 32/102/98
f 84/99/95 32/102/98 31/103/99
f 83/100/96 82/104/100 33/101/97
f 33/101/97 82/104/100 34/105/101
f 34/105/101 82/104/100 81/106/102
f 34/105/101 81/106/102 80/107/103
f 80/107/103 79/108/104 34/105/101
f 34/105/101 79/108/104 35/109/105
f 35/109/105 79/108/104 78/110/106
f 35/109/105 78/110/106 77/111/107
f 35/109/105 77/111/107 36/112/108
f 36/112/108 77/111/107 76/113/109
f 36/112/108 76/113/109 75/114/110
f 36/112/108 75/114/110 37/115/111
f 37/115/111 75/114/110 74/116/112
f 37/115/111 74/116/112 73/117/113
f 73/117/113 72/118/114 37/115/111
f 37/115/111 72/118/114 38/119/115
f 38/119/115 72/118/114 71/120/116
f 38/119/115 71/120/116 70/121/117
f 69/122/118 46/123/119 70/121/117
f 70/121/117 46/123/119 45/124/120
f 70/121/117 45/124/120 44/125/121
f 69/122/118 68/126/122 46/123/119
f 46/123/119 68/126/122 48/127/123
f 44/125/121 43/128/124 70/121/117
f 70/121/117 43/128/124 42/129/125
f 70/121/117 42/129/125 41/130/126
f 41/130/126 40/131/127 70/121/117
f 70/121/117 40/131/127 39/132/128
f 70/121/117 39/132/128 38/119/115
f 31/103/99 30/133/129 84/99/95
f 84/99/95 30/133/129 29/134/130
f 84/99/95 29/134/130 28/135/131
f 28/135/131 27/136/132 84/99/95
f 84/99/95 27/136/132 26/137/133
f 84/99/95 26/137/133 4/97/93
f 47/138/134 67/139/135 5/140/136
f 5/140/136 67/139/135 66/141/137
f 5/140/136 66/141/137 65/142/138
f 64/143/139 13/144/140 65/142/138
f 65/142/138 13/144/140 12/145/141
f 65/142/138 12/145/141 11/146/142
f 64/143/139 63/147/143 13/144/140
f 13/144/140 63/147/143 14/148/144
f 14/148/144 63/147/143 62/149/145
f 14/148/144 62/149/145 61/150/146
f 61/150/146 60/151/147 14/148/144
f 14/148/144 60/151/147 15/152/148
f 15/152/148 60/151/147 59/153/149
f 15/152/148 59/153/149 58/154/150
f 15/152/148 58/154/150 16/155/151
f 16/155/151 58/154/150 57/156/152
f 16/155/151 57/156/152 56/157/153
f 16/155/151 56/157/153 17/158/154
f 17/158/154 56/157/153 55/159/155
f 17/158/154 55/159/155 54/160/156
f 54/160/156 53/161/157 17/158/154
f 17/158/154 53/161/157 18/162/158
f 18/162/158 53/161/157 52/163/159
f 18/162/158 52/163/159 51/164/160
f 50/165/161 1/166/162 51/164/160
f 51/164/160 1/166/162 25/167/163
f 51/164/160 25/167/163 24/168/164
f 50/165/161 49/169/165 1/166/162
f 1/166/162 49/169/165 2/170/166
f 24/168/164 23/171/167 51/164/160
f 51/164/160 23/171/167 22/172/168
f 51/164/160 22/172/168 21/173/169
f 21/173/169 20/174/170 51/164/160
f 51/164/160 20/174/170 19/175/171
f 51/164/160 19/175/171 18/162/158
f 11/146/142 10/176/172 65/142/138
f 65/142/138 10/176/172 9/177/173
f 65/142/138 9/177/173 8/178/174
f 8/178/174 7/179/175 65/142/138
f 65/142/138 7/179/175 6/180/176
f 65/142/138 6/180/176 5/140/136
# 86 vertices
# 180 texture params
# 176 normals
# 168 facets

# 2 groups
